<svg id="Layer_2" data-name="Layer 2" xmlns="http://www.w3.org/2000/svg" viewBox="0 0 112.42 39.25"><defs><style>.cls-1{fill:#ea2e26;}.cls-2{fill:#beb800;}</style></defs><title>viktoria_kvartal</title><path class="cls-1" d="M46.66,18.57a4.47,4.47,0,0,0-2.34-1.36,4.59,4.59,0,0,0,1.7-1.1,2.69,2.69,0,0,0,.67-1.84,2.75,2.75,0,0,0-1.31-2.41,6.36,6.36,0,0,0-3.61-.9l-5.59,0a1.46,1.46,0,0,1,.87,1,4.89,4.89,0,0,1,.16,1.43v.7l0,8.59v.59A5.78,5.78,0,0,1,37,24.86a1.52,1.52,0,0,1-.87,1H40c1.29,0,2.18.05,2.69,0a6.38,6.38,0,0,0,2.35-.58,5.18,5.18,0,0,0,2-1.7,3.93,3.93,0,0,0,.75-2.38,3.69,3.69,0,0,0-1.12-2.69m-6.13-5.35a5.8,5.8,0,0,1,.94-.11,1.51,1.51,0,0,1,1.16.5A1.92,1.92,0,0,1,43.12,15a1.72,1.72,0,0,1-.84,1.58,2,2,0,0,1-1.26.34l-.5-.06ZM43.7,23.29A2.5,2.5,0,0,1,42,23.9l-.35,0-1.16-.09v-4.9l.87-.07a3.36,3.36,0,0,1,2.1.63,2.49,2.49,0,0,1,1,2.11,2.22,2.22,0,0,1-.75,1.73" transform="translate(-36.14 -5.27)"/><path class="cls-1" d="M58.65,23.05l0-6.95-5.71,8a11.61,11.61,0,0,1-1.44,1.56,5.37,5.37,0,0,1-1.88,1l0-12.77a6.78,6.78,0,0,0-.13-1.67,2.17,2.17,0,0,0-1-1.21l5.7,0a2.41,2.41,0,0,0-1.06,1.25A6.94,6.94,0,0,0,53,14l0,6.85L59,12.07l.32-.46c.13-.2.22-.37.34-.57H63a1.87,1.87,0,0,0-.82,1A4.27,4.27,0,0,0,62,13.37V14l0,9.08v.84a3.23,3.23,0,0,0,.19,1.21A1.77,1.77,0,0,0,63,26L57.28,26a3,3,0,0,0,1.14-1.28,4.41,4.41,0,0,0,.23-1.69" transform="translate(-36.14 -5.27)"/><path class="cls-1" d="M130.92,23.25l0-6.94-5.71,8a11.61,11.61,0,0,1-1.44,1.56,5.51,5.51,0,0,1-1.89,1l0-12.78a6.78,6.78,0,0,0-.13-1.67,2.15,2.15,0,0,0-1-1.2l5.69,0a2.29,2.29,0,0,0-1,1.24,6.94,6.94,0,0,0-.14,1.69l0,6.86,6-8.75.32-.46a6.48,6.48,0,0,0,.33-.57h3.34a1.82,1.82,0,0,0-.82,1,4.27,4.27,0,0,0-.19,1.33v.62l0,9.08v.84a3,3,0,0,0,.19,1.21,1.83,1.83,0,0,0,.83.86l-5.72,0a3.64,3.64,0,0,0,1.15-1.28,4.35,4.35,0,0,0,.23-1.69" transform="translate(-36.14 -5.27)"/><path class="cls-1" d="M65.83,14.24V13.7a5.79,5.79,0,0,0-.13-1.53,1.45,1.45,0,0,0-.89-1.05l5.38,0a1.4,1.4,0,0,0-.84,1,6.47,6.47,0,0,0-.2,1.69v.52l0,8.59v.57a6.26,6.26,0,0,0,.13,1.53A1.49,1.49,0,0,0,70.15,26l-5.38,0a1.54,1.54,0,0,0,.87-1.12,6,6,0,0,0,.17-1.57v-.52ZM73,13.16A2.24,2.24,0,0,0,73.5,12a1,1,0,0,0-.68-.89l4.94-.05-4.91,6.27,4.59,6.06,1,1.27A4.11,4.11,0,0,0,79.82,26h-3.2a4.1,4.1,0,0,1-1.55-.22,2.18,2.18,0,0,1-1-.71l-5-6.83s3.77-4.72,4-5.09" transform="translate(-36.14 -5.27)"/><path class="cls-1" d="M86.19,23.14a6.85,6.85,0,0,0,.13,1.66A2.16,2.16,0,0,0,87.37,26l-5.51,0A1.53,1.53,0,0,0,82.71,25a6.17,6.17,0,0,0,.16-1.53V22.9l0-9.45H81.39a5.25,5.25,0,0,0-1.51.21,3.48,3.48,0,0,0-1.35.7l.88-3.45a1.47,1.47,0,0,0,.51.12l.42.07,9.08,0a4.68,4.68,0,0,0,.59,0,2.06,2.06,0,0,0,.46-.15l-.79,3.32a1,1,0,0,0-.67-.6,3.59,3.59,0,0,0-1.24-.19H86.22Z" transform="translate(-36.14 -5.27)"/><path class="cls-1" d="M114.75,11.19a6.29,6.29,0,0,1,3.76,1.07A3.43,3.43,0,0,1,120,15.19a3.76,3.76,0,0,1-1.5,3.08,5.47,5.47,0,0,1-3.53,1.18,5.28,5.28,0,0,1-.9-.06,3.49,3.49,0,0,1-.77-.26,3.07,3.07,0,0,0,2.18-.93,3.23,3.23,0,0,0,1.19-2.56,2.54,2.54,0,0,0-.88-1.89,2.58,2.58,0,0,0-1.89-.68,3.73,3.73,0,0,0-.55.11l0,10.06a6.85,6.85,0,0,0,.13,1.66,2.13,2.13,0,0,0,1,1.22l-5.53,0a1.57,1.57,0,0,0,.87-1.09A6.59,6.59,0,0,0,110,23.5V23l0-8.6v-.54a6.37,6.37,0,0,0-.13-1.53,1.54,1.54,0,0,0-.87-1.08Z" transform="translate(-36.14 -5.27)"/><path class="cls-1" d="M142.48,11.21l6.07,0a1.39,1.39,0,0,0-.81.94,5.9,5.9,0,0,0-.2,1.63v.63l0,8.59v.71a5.45,5.45,0,0,0,.18,1.55,1.3,1.3,0,0,0,.81.93l-5.35.05a1.65,1.65,0,0,0,.87-1.15,6.55,6.55,0,0,0,.17-1.58V23l0-9.74a7.84,7.84,0,0,0-1.19-.13,2.55,2.55,0,0,0-1.74.77,2,2,0,0,0-.56,1.53A2.59,2.59,0,0,0,142,17.69a5.8,5.8,0,0,0,2.54.94c-.29.47-.4.63-.58.92-.54.85-2.25,5-2.65,5.5a3.18,3.18,0,0,1-2.74,1.13l-2.79.06a4.38,4.38,0,0,0,1.52-1.07A7.7,7.7,0,0,0,138.82,23l2-4.19a5,5,0,0,1-2-1.35,3.59,3.59,0,0,1-1.11-2.6A3.25,3.25,0,0,1,139,12.23a5.29,5.29,0,0,1,3.48-1" transform="translate(-36.14 -5.27)"/><path class="cls-1" d="M98.84,12.29a4,4,0,0,0-3.52,1.86A6.66,6.66,0,0,0,94.22,18a10.3,10.3,0,0,0,.33,2.45,9.12,9.12,0,0,0,.87,2.29A5,5,0,0,0,97,24.38,3.73,3.73,0,0,0,99.1,25a4.31,4.31,0,0,0,2-.5,4.88,4.88,0,0,0,1.6-1.36,4.67,4.67,0,0,0,.79-1.67,9.16,9.16,0,0,0,.21-2,10,10,0,0,0-1-4.62,4.22,4.22,0,0,0-3.88-2.59M92.64,24.5a7.69,7.69,0,0,1-2.46-5.94,7.44,7.44,0,0,1,2.66-5.92,6.36,6.36,0,0,1,6.3-1.37,6.35,6.35,0,0,1,6.21,1.3,7.65,7.65,0,0,1,2.41,6,7.44,7.44,0,0,1-2.66,6A8.86,8.86,0,0,1,101,26.52c-1.51.29-1.68-.35-2.19-.35s-.58.65-2.21.32a8.3,8.3,0,0,1-4-2" transform="translate(-36.14 -5.27)"/><path class="cls-2" d="M110.42,5.27c.59,2.2-.8,5.86-5.25,4.32-1.74-.61-2.76-1.18-4.25-.72a3.05,3.05,0,0,0-1.64,1.66l-.39,0C100,6.64,101.83,5.06,106.18,6c3.19.65,3.65.13,4.24-.68" transform="translate(-36.14 -5.27)"/><path class="cls-2" d="M94.09,32.07a1.12,1.12,0,0,0-1.15-1.36l-5.89,0s-2.26,13.57-2.3,13.83h.7A1.7,1.7,0,0,0,87,43.21l.36-2.16h3.84a1.69,1.69,0,0,0,1.61-1.37Zm-5.27.64H92l-1,6.34H87.76Z" transform="translate(-36.14 -5.27)"/><path class="cls-2" d="M123.76,41.16l1.72-10.36H121l-.85.1a3.67,3.67,0,0,0-2.58,2.76l-1.23,7.49c1.41.07,2.1-.31,2.38-1.75l.92-5.46c.2-1.18,1.24-1.11,1.69-1.11H123l-1.38,8.33h2.11" transform="translate(-36.14 -5.27)"/><path class="cls-2" d="M65.56,41c0-.28.51-3.07.51-3.07.29-1.7.13-2.45-1-2.45.83,0,1.49-.72,1.66-1.77l.51-3.07H65.17l-.42,2.54a1.54,1.54,0,0,1-1.52,1.43c-.85,0-1.2-.49-1-1.44l.42-2.54H60.53L58.81,41h2.08c0-.29.72-4.33.72-4.33h2.56s-.67,4-.72,4.34h2.11" transform="translate(-36.14 -5.27)"/><path class="cls-2" d="M85,32.82a1.76,1.76,0,0,0-1.79-2.14H78.09l-.34,2,4.07,0a.92.92,0,0,1,.92,1.11,1.37,1.37,0,0,1-1.3,1.11H78.76a1.7,1.7,0,0,0-1.61,1.37L76.37,41,82,41c1.12,0,1.72-.55,1.92-1.78Zm-5.89,4.1h3.2L81.91,39h-3.2Z" transform="translate(-36.14 -5.27)"/><path class="cls-2" d="M115.94,32.91a1.78,1.78,0,0,0-1.79-2.14h-5.08c0,.25-.29,1.75-.33,2h4.06a.92.92,0,0,1,.92,1.11A1.36,1.36,0,0,1,112.43,35h-2.69a1.68,1.68,0,0,0-1.6,1.38s-.75,4.47-.79,4.72l5.59,0c1.13,0,1.72-.54,1.93-1.78ZM110,37h3.19l-.35,2.08h-3.19Z" transform="translate(-36.14 -5.27)"/><path class="cls-2" d="M105.6,41.1c.05-.31,1.25-7.47,1.25-7.47a2.43,2.43,0,0,0-1.66-2.78h0a2.65,2.65,0,0,0-.81-.11H96.06c-.06.31-1.68,10-1.73,10.35h2.11c.06-.31,1.36-8.16,1.36-8.16l0-.16h2.47l-1.39,8.31H101c0-.31,1.39-8.32,1.39-8.32h2.47s-1.33,8-1.39,8.32h2.11" transform="translate(-36.14 -5.27)"/><path class="cls-2" d="M73.6,35.05H70.4l.38-2.32H74Zm-.68,4.1H69.71l.4-2.32h3.2ZM75.62,35l.49-2.94a1.33,1.33,0,0,0-1.32-1.44l-5.77,0-1.71,10.3,6.15,0a1.62,1.62,0,0,0,1.44-1.59l.42-2.57a1,1,0,0,0-.55-.91,1.21,1.21,0,0,0,.85-.85" transform="translate(-36.14 -5.27)"/></svg>