<?xml version="1.0" encoding="UTF-8"?>
<!DOCTYPE svg PUBLIC "-//W3C//DTD SVG 1.1//EN" "http://www.w3.org/Graphics/SVG/1.1/DTD/svg11.dtd">
<!-- Creator: CorelDRAW 2019 (64-Bit) -->
<svg xmlns="http://www.w3.org/2000/svg" xml:space="preserve" width="4370px" height="1689px" version="1.1" shape-rendering="geometricPrecision" text-rendering="geometricPrecision" image-rendering="optimizeQuality" fill-rule="evenodd" clip-rule="evenodd"
viewBox="0 0 4370 1688.95"
 xmlns:xlink="http://www.w3.org/1999/xlink"
 xmlns:xodm="http://www.corel.com/coreldraw/odm/2003">
 <g id="Слой_x0020_1">
  <metadata id="CorelCorpID_0Corel-Layer"/>
  <g id="_2156670838800">
   <path fill="black" d="M1338.53 940.24c-4.1,-6.12 -15.51,-13.32 -22.19,-18.33l-22.84 -17.69c87.5,0 26.55,20.37 138.68,-7.65 22.75,-5.69 43.35,-11.4 64.39,-16.66l226.09 -57.73c15.2,-3.97 14.8,-1.9 29.15,4.2l57.23 23.81c-0.77,9.28 -9.12,31.59 -12.65,41.38 -8,22.14 -6.35,13.34 0.08,45.48l9.38 46.91c2.17,10.86 6.7,39.57 9.94,46.33l-63.03 47.28 56.29 -27c-2.62,9.73 -39.72,59.33 -43.68,71.13l-36 162.1c-5.03,22.04 -9.09,40.68 -13.93,62.63 -2.63,11.94 -4.14,19.6 -6.83,31.43 -7.3,32.11 0.38,25.44 -27.01,31.53l-497.84 109.99c-41.6,8.86 -86.82,18.9 -128.89,28.7 -13.74,-28.63 -32.74,-77.98 -46.57,-104.27 -9.17,-17.42 -2.6,-23.57 7.52,-58.6l16.54 -60c11.93,7.98 15.09,30.28 27.01,38.27 1.25,-14.97 6.93,-34.56 9.96,-50.83l19.87 -101.69c10.07,-50.34 11.63,-44.21 -9.56,-97.37 -5.71,-14.33 -10.97,-29.58 -16.03,-44.76 -4.81,-14.47 -11.01,-29 -16.36,-44.42 -4.94,-14.27 -11.01,-34.31 -17.14,-45.89 33.67,7.84 11.72,25.04 64.61,17.33l76.89 -10.91c9.58,-3.15 82.6,-64.97 99.38,-76.21l67.54 31.51zm1082.85 427.74l5.98 -16.53c1.78,-6.34 3.39,-12.34 4.99,-17.52 3.72,-11.98 6.59,-21.85 10.26,-34.76l41 -139.32c1.72,-9 -5.53,-26.69 -8.53,-34.68 -3.86,-10.31 -7.39,-21.55 -11.88,-33.14 -16.88,-43.59 -16.77,-38.33 -8.97,-69.4 6.18,-24.62 12.75,-47.05 19.08,-71.12 5.67,-21.58 -4.95,-19.43 -35.61,-50.1 -11.6,-11.6 -37.89,-35.21 -45.59,-46.71 15.51,1.29 57.6,21.68 74.94,28.62 25.98,10.39 49.94,19.74 75.57,30.24 26.28,10.78 27.77,0.37 52.84,-13.1l51.01 -27.78c16.95,-8.78 19.14,-15.69 38.3,-11.23l0 33.77c20.52,0.46 125.8,24.48 148.77,29.08l319.54 63.17c25.71,8.27 78.56,50.27 101.26,56.33l0 4.5c-6.71,0.56 -69.11,22.2 -74.29,29.27 19.03,0 30.42,-2.37 47.22,-2.3l123.94 0.12c11.49,-0.34 12.37,-2.32 24.69,-2.32 3.89,8.09 7.11,20.22 10.41,30.11l20.82 64.73c7.32,21.91 45.52,150.05 52.1,161.77 7.18,12.78 67.99,69.17 84.95,86.14 15.01,15.01 28.85,26.58 43.9,41.65l22.5 20.28c8.06,7.09 13.35,15.04 21.97,20.8 -4.71,9.81 -25.84,73.66 -27.02,87.8 -46.39,-3.86 -139.33,-9.67 -180.72,-15.14 -9.36,-1.23 -23.46,-2.16 -31.03,-2.74 -31.78,-2.43 -62.02,-6.48 -92.16,-6.9 -33.02,-0.45 -86.15,-5.36 -117.95,-12.61l-376.45 -85.06c-37.38,-8.52 -71.52,-15.67 -108.49,-24.33 -27.81,-6.51 -249.66,-58.83 -268.41,-60.27 -20.29,-1.55 -47.06,-0.69 -63.59,1.57l-193.07 5.04c-13.52,0.02 -16.32,2.26 -29.1,2.42 -53.78,0.67 -107.74,4.43 -162.18,4.41 -24.13,0 -40.67,2.34 -63.02,2.26l-162.11 4.49c-14.24,-0.05 -20.77,1.37 -31.51,2.26 5.36,-23.01 9.27,-47.48 14.07,-71.48 6.11,-30.53 36.03,-201.66 42.86,-216.03 8.25,-17.33 22.75,-35.84 33.58,-51.97 18.44,-27.46 12.95,-23.79 4.63,-66.33 -4.85,-24.75 -7.99,-47.79 -12.79,-72.76 -7.29,-37.89 9.66,-37.92 12.2,-68.48 30.16,7.02 108.76,51.3 130.2,49.4 15.77,-1.39 182.82,-44.93 202.53,-49.86 21.45,-5.36 97.14,-27.11 117.52,-28.81 -11.59,15.82 -56.35,29.76 -67.53,45.03 14.01,-1.17 60.73,-18.36 77.39,-23.92 14.52,-4.84 43.16,-19.03 58.01,-14.86 1.63,0.46 8.49,3.08 9.81,3.86 5.9,3.5 7.67,12.66 17.56,20.73l98.37 81.72c0,17.66 -9.39,36.64 -14.31,53.23 -5.3,17.82 -12.88,34.86 -15.52,51.99 -1.06,6.81 3.87,16.12 6.47,23.95 8.78,26.48 17.81,50.17 23.68,77.74 3.99,18.75 -4.31,36.93 -8.37,55.19 -4.36,19.57 -7.55,37.92 -11.76,55.78 -4.72,20.01 -22.96,92.09 -22.96,112.11zm-148.58 -544.8l0.67 0.67c-0.05,-0.04 -0.9,-0.45 -0.67,-0.67zm-508.79 -659.61c30.15,0 57.45,-2.33 90.06,-2.25 17.67,0.04 27.48,-2.31 42.69,-2.33 15.77,-0.03 31.6,0.01 47.37,0.09 17.71,0.09 25.56,-2.4 42.73,-2.3 15.78,0.09 31.57,0.02 47.36,0.09 16.25,0.06 24.87,-2.38 42.71,-2.32 15.77,0.06 31.59,0.11 47.36,0.09 15.21,-0.02 25.02,-2.37 42.69,-2.33 15.5,0.03 31.98,0.53 47.36,0.07 13.83,-0.41 25.44,-2.33 42.7,-2.32 81.09,0.05 149.04,-4.5 229.62,-4.5 5.2,22.29 22.53,45.64 22.57,69.73l7.74 154.84 -17.65 53.73c-2.11,6.34 -3.9,11.69 -5.61,16.9 -1.28,3.9 -1.39,4.69 -2.76,8.5l-4.29 9.22c0,-32.49 -9,-61.38 -9,-92.3 -1.22,1.76 -1.2,0.93 -2.48,4.27l-27.69 215.45 -83.88 202.03c-3.88,8.64 -7.63,17.07 -9.77,26.24 -33.5,-2.78 5.43,-19.6 -75.61,-3.56l-313.29 64.91c-47.88,9.58 -28.7,10.09 -59.41,-2.5l-245.07 -106.12c0,-42.43 -20.61,-60.59 -3.78,-93.83l109.59 -234.85 -41.89 -185.5c-6.19,-26.89 -10.13,-12.26 21.62,-59.89 4.63,-6.94 15.94,-21.51 18.01,-29.26zm6.96 -31.9l-0.2 0.38c-22.66,0 -30.2,1.92 -51.9,0.12l-357.9 -18.06c-22.58,0.02 -54.06,-4.78 -81.01,-4.54 -13.14,0.12 -16.46,-1.73 -26.97,-2.3 -9.61,-0.51 -19.38,0.76 -28.95,-0.31l-164.72 -8.73c-58.04,-0.21 -282.46,37.03 -312.49,33.54 -26.37,-3.07 -253.47,-6.48 -284.04,-6.48 -75.51,0 -150.12,-4.54 -227.37,-4.5 -21.32,0.01 -34.21,-2.37 -54.02,-2.26 -19.51,0.1 -39.03,-0.03 -58.55,0.01 -21.56,0.05 -34.35,-2.28 -56.27,-2.25 -19.51,0.02 -39.03,0 -58.54,0 -3.8,7.2 -6.92,15.84 -9,24.76l109.7 2.87c24.46,3.35 57.31,1.22 84,1.55 12.5,0.15 14.33,2.27 26.83,2.43 18.66,0.23 37.69,-0.03 56.38,-0.1 20.98,-0.08 34.22,2.27 56.27,2.26 76.66,-0.05 148.21,4.67 225.13,4.5 21.05,-0.05 32.97,2.3 54.02,2.25 18.63,-0.04 40.28,-1 58.55,-0.01 33.97,1.84 78.27,6.35 111.6,1.31l106.76 -8.05c4.44,9.26 6.77,21.18 10.41,32.36 24.89,76.44 44.87,153.1 69.79,229.63l94.38 266.78 -77.78 245.66 24.77 -6.76 86.14 -246.61 -164.65 -456.06c-7.69,-23.09 -17.33,-43.76 -22.8,-67.25l151.84 -10.36c22.61,-3.5 226.13,10.52 262.39,10.36 20.52,-0.1 31.65,2.34 51.77,2.25 53.18,-0.22 106.44,7.01 157.54,6.81l78.94 2.1c12.14,0.15 13.26,2.08 24.6,2.42 37.34,1.11 69.65,2.18 108.13,2.18l-37.37 48.23c-7.05,8.99 -7.7,6.8 -5.59,19.17 5.64,32.98 11.85,66.14 18.4,98.99l18.27 99c2.18,14.36 -7.16,28.23 -12.68,42.06 -27.66,69.39 -54.6,138.74 -85.35,207.31 -16.4,36.58 -6.54,36.57 6.15,89.94 5.38,22.65 7.96,19.14 51.54,36.26l14.36 5.9c4.59,2.58 2.79,1.6 5.26,3.74 -45.35,0 -62.76,2.51 -104.84,14.48l-189.29 53.85c-60.51,17.48 -61.56,19.06 -125.88,9.48 -22.17,-3.3 -26.03,2.33 -41.82,14.17l-18.01 13.51c-16.95,12.71 -51.8,41.98 -69.51,52.05 -8.28,4.71 -94.13,17.66 -104.73,14.88 -27.01,-7.09 -32.63,-9.89 -37.49,-23.4 -3.01,-8.36 -14.62,-36.98 -15.32,-45.46 -7.9,0.66 -18.98,3.98 -24.77,6.76 0.71,8.49 4.09,15.86 6.76,22.51l56.56 155.06c12.96,39.04 28.01,53.98 20.54,90.89 -3.58,17.71 -6.21,33.48 -9.74,51.04 -3.12,15.52 -4.57,31.49 -9.75,46.53l-1.33 3.17c-2.65,-11.38 -8.04,-17.6 -9.01,-29.27 -8.91,6.54 -24.51,57.42 -28.42,68.38 -6.26,17.53 -39.56,92.12 -35.11,107.51 3.51,12.14 8.46,24.81 13.06,36.68 9.35,24.16 15.28,51.61 25.71,73.34 -35.71,0 -68.39,4.71 -101.35,4.46 -14.96,-0.12 -19.39,2.38 -33.65,2.37l-134.22 7.61c-65.56,9.1 -126.35,14.06 -191.63,22.23 -19.23,2.41 -44.43,5.81 -64.09,7.96l-447.66 52.11c-32.7,2.79 -35.73,-0.61 -42.71,29.33 27.98,0 235.18,-25.05 271.71,-29.95 16.14,-2.16 36.92,-4.6 54.66,-6.13 71.86,-6.2 144.47,-17.63 216.39,-24.5 54.84,-5.23 108.19,-13.49 164.07,-18.27 17.51,-1.5 36.93,-5.17 54.21,-6.58 37.53,-3.05 84.58,3.66 121.12,-0.44 44.63,-5.02 99.11,-0.43 146.73,-1.85 11.81,-0.36 15.27,-2.37 29.22,-2.3 26.61,0.13 120.59,-26.21 149.01,-33.34l391.73 -94.54c21.52,-5.07 61.3,-17.97 87.09,-21.86 4.36,-2.43 9.13,-4.09 14.3,-4.61 5.07,-0.52 10.15,-0.87 15.13,-0.31l0.08 -0.71c64.44,0 124.4,-4.33 189.18,-4.42l306.16 -9.01c11.12,-0.33 11.26,-2.06 22.37,-2.4 16.31,-0.48 33.3,0.37 49.69,0.17l44.93 -2.34c27.75,0.01 123.78,-6.48 141.43,-1.86l620.84 158.09c57.82,14.43 102.15,30.82 163.05,30.57 28.36,-0.12 63.99,4.72 92.19,4.6l234.19 8.95c29.92,-0.27 90.8,18.61 119.77,26.56 24.36,6.68 180.25,49.9 193.98,46.51 19.19,-4.76 117.19,-43.72 142.99,-53.06l177.45 -65.68c23.78,-9.31 47.66,-17.75 70.71,-26.1 12,-4.35 24.87,-9.25 36.09,-13.43 11.61,-4.33 25.76,-8.6 35.68,-13.85l0 -29.26c-21.35,4.97 -349.39,134.41 -362.42,139.59 -12.95,5.16 -103.59,42.05 -113.69,43.46 -11.48,1.59 -58.01,-16.77 -71.41,-20.49l-145.05 -44.06c-15.49,-4.59 -34.06,-8.22 -48.08,-14.95 3.52,-15.1 9.15,-32.01 13.78,-47 19.21,-62.12 21.24,-38.38 -27.85,-87.51l-106.89 -100.23c-39.09,-37.62 -27.99,-16.56 -44.29,-81.78l-50.87 -199.01c78.86,0 150.82,-2.52 229.68,-2.2l56.22 -2.31c19.38,0.01 99.73,-3.44 111.03,1.53 9.72,4.29 32.21,15.67 42.06,16.49 -4.78,-7.14 -13.57,-14.3 -15.76,-22.52 17.2,8.25 43.77,12.95 63.05,18 120.97,31.71 67.59,30.67 203.53,3.2 23.98,-4.85 44.21,-8.39 67.92,-13.13 24.21,-4.84 45.16,-9.54 69.42,-13.87l120.42 -23.66c5.77,-1.1 13.09,-1.06 18.21,-4.31 -26.2,0 -281.07,41.21 -328.01,47.96 -27.17,3.9 -38.51,9.18 -66.42,2.03l-152.08 -37.04c-12.73,-3.06 -89.79,2.86 -108.52,2.89 -12.8,0.02 -25.64,-0.17 -38.43,-0.15 -14.49,0.02 -20.14,2.44 -35.91,2.35l-110.3 2.42c-39.78,2.11 -132.13,-6.29 -180.23,-6.86 -11.97,-0.14 -21.91,-1.62 -36.01,-2.26 -19.19,-0.86 -124.86,-56.91 -156.8,-70.58 -16.2,-6.93 -71.18,-19.62 -90.28,-24.53l-119.53 -31.31c-19.52,-5.79 -39.86,-10.27 -60.59,-15.95l-179.67 -47.7c-36.73,-9.09 -23.98,-13.67 -82.69,15.89 -9.77,4.92 -16.55,7.74 -26.23,12.04 -52.78,23.47 -27.62,23.6 -106.8,-8.07 -10.91,-4.36 -100.79,-43.03 -109.35,-43.74l16.53 -37.5c5.88,-13.23 10.27,-24.59 16.49,-37.54l33.05 -75.01c10.46,-22.96 13.82,-64.51 17.35,-90.71 2.06,-15.3 4.6,-30.57 7.29,-46.74 2.2,-13.23 6.1,-32.32 6.1,-47.93l2.25 0c0,16.81 -2.38,23.78 -2.29,40.49 0.09,15.01 0.04,30.04 0.04,45.05 4.47,-6.44 5.8,-15.45 8.05,-23.46l42.27 -151.33c9.81,-33.84 9.42,-52.86 8.28,-90.93 -0.35,-11.73 -2.43,-15.34 -2.38,-29.14 0.27,-63.98 3.3,-81.25 -24.71,-139.63 16.87,0 43.3,-1.1 59.49,-3.55l183.64 -12.21c41.74,-2.15 80.42,-5.61 121.64,-6.68 17.6,-0.46 42.91,-4.52 60.66,-4.63 18.86,-0.12 44,-2.2 61.17,-4.11l121.29 -7.04c54.73,0.24 60.9,-12.28 117.96,-0.99l323.07 66.39c13.9,2.88 39.14,11.14 55.14,7.6 18.5,-4.09 35.69,-8.41 53.27,-12.08 70.9,-14.81 142.47,-32.08 211.99,-46.9 30.14,-6.42 79.4,-21.12 107.45,-20.87l342.25 -15.7c13.96,0.11 21.18,-2.03 31.5,-2.26l0 -29.27 -261.14 18.02c-9.83,0.47 -8.18,1.77 -18.01,2.24l-92.32 6.74c-47.59,2.27 -313.36,59.7 -367.92,71.18 -16.68,3.51 -15.45,1.88 -31.88,-2.27l-323.26 -79.72c-22.55,-5.6 -42.54,-13.73 -66.97,-11.58l-184.87 15.52c-14.23,1.09 -24.88,1.97 -38.14,2.39 -35.34,1.11 -75.01,8.53 -110.3,9.01l-258.92 20.24c-22.01,0.3 -93.75,11.67 -109.24,8.11l-6.24 -2.02c-4.93,0.1 -9.75,-0.36 -13.54,-1.34 -6.71,-1.72 -4.76,-3.01 -11.82,-3.01 -3.06,0 -6.74,-0.67 -9.51,0.67 -8.84,4.25 -18.82,3.33 -28.35,3.49l16.63 5.37c-108.65,0 -217.53,9.01 -326.43,9 -108.74,0 -217.39,9.01 -326.43,9.01l0.95 -1.42c-5.34,1.62 -11.03,1.96 -16.51,1.04z"/>
   <path fill="white" d="M3697.83 381.94c12.52,1.04 23.74,7.94 24.77,20.26 35.24,0 42.77,17.03 42.77,42.77 15.56,1.3 0.71,4.5 18.01,4.5 11.51,0 24.76,-5.38 24.76,-18.01 0,-14.73 -19.97,-9.21 -29.26,-9 0,-30.15 -16.37,-24.34 -38.27,-22.52 -4,-17.14 -30.88,-35.13 -42.78,-18z"/>
   <path fill="black" d="M2421.38 1367.98c-2.29,3.02 -2.25,-4.73 -2.25,6.75l2.25 0 0 -6.75z"/>
   <polygon fill="black" points="1338.53,940.24 1338.53,942.5 1341.16,940.62 "/>
   <polygon fill="black" points="1869.82,5.98 1872.07,5.98 1870.2,3.35 "/>
   <polygon fill="black" points="4364.2,1030.29 4369.04,1029.06 "/>
  </g>
 </g>
</svg>
