<svg xmlns="http://www.w3.org/2000/svg" xmlns:xlink="http://www.w3.org/1999/xlink" viewBox="0 0 326.6 243"><defs><linearGradient id="a" x1="389.52" y1="218.08" x2="151.03" y2="494.83" gradientTransform="matrix(1, 0.01, -0.01, 1, 15.61, -22.05)" gradientUnits="userSpaceOnUse"><stop offset="0" stop-color="#fff0bd"/><stop offset="0.23" stop-color="#feecbb"/><stop offset="0.46" stop-color="#fae0b5"/><stop offset="0.7" stop-color="#f4ccab"/><stop offset="0.93" stop-color="#ebb09e"/><stop offset="1" stop-color="#e8a699"/></linearGradient><linearGradient id="b" x1="957.7" y1="139.1" x2="797.64" y2="413.3" gradientTransform="matrix(-1, -0.01, -0.01, 1, 999.5, -218.78)" gradientUnits="userSpaceOnUse"><stop offset="0" stop-color="#7c898f"/><stop offset="0.21" stop-color="#606a6f"/><stop offset="0.75" stop-color="#1c1f20"/><stop offset="1" stop-color="#010101"/></linearGradient></defs><title>desk</title><g style="isolation:isolate"><polygon points="25.1 7.6 11.4 22.8 13.3 222.3 24.3 234.4 293.8 237.3 305.6 225.9 312.4 25.7 298.1 10.5 25.1 7.6" style="fill:#22577e"/><path d="M151.6,443.2h2.7l269.5,3,11.9-11.5,6.8-200.2-14.4-15.1-273-3h-2.8l-14.7,14.8L140,431.5Zm-2.4-234.4,282.1,3.1,18.8,19.6-7,204.7-16.3,15.6-278.3-3.1-16-15.9L130,228Z" transform="translate(-130 -208.8)" style="fill:url(#a)"/><polygon points="7.5 22.4 9.9 222.6 21.5 234.4 24.3 234.4 13.3 222.3 11.4 22.8 25.1 7.6 22.2 7.5 7.5 22.4" style="fill:#b15550"/><path d="M443.1,436.2l-16.3,15.6h5.1l15.9-15.1,8.8-205.6L439.5,212h-8.2l18.8,19.6Z" transform="translate(-130 -208.8)" style="fill:#b15550"/><polygon points="304.1 27.2 293.4 14.6 28.4 14.3 17.1 24 19.2 218.5 27.6 231.1 23.8 31.7 38.8 25.2 304.1 27.2" style="mix-blend-mode:screen;fill:url(#b)"/></g></svg>