<svg id="Layer_1" data-name="Layer 1" xmlns="http://www.w3.org/2000/svg" viewBox="0 0 205.76 111.14"><defs><style>.cls-1{fill:#ff8200;}.cls-2{fill:#fff;}.cls-3{fill:#78be20;}.cls-4{fill:#97d700;}</style></defs><title>dixyLogoStart</title><rect class="cls-1" width="205.76" height="111.14"/><circle class="cls-2" cx="46.46" cy="55.57" r="19.89"/><path class="cls-1" d="M136.67,72.87a18.69,18.69,0,0,1-2.59,9.51,53.09,53.09,0,0,1-16.17,2.31,53.09,53.09,0,0,1-16.17-2.31,18.76,18.76,0,1,1,34.93-9.51Z" transform="translate(-71.45 -17.3)"/><path class="cls-2" d="M120.69,74.47H114.9a6,6,0,0,0,.75-1.55,13.29,13.29,0,0,0,.46-1.86,15.38,15.38,0,0,0,.24-1.85c.05-.6.08-3.28.08-3.73v-.92h4.26v9.91Zm5.63.53a.53.53,0,0,0-.53-.53h-1V62.62h0v-.9h0a.53.53,0,0,0-.53-.53H114a2.66,2.66,0,0,0-.69.08.94.94,0,0,0-.48.3,1,1,0,0,0-.18.65v1.37c0,.46,0,1,0,1.5s0,3.22-.1,3.78-.13,1.12-.22,1.67a12.51,12.51,0,0,1-.41,1.57,6.41,6.41,0,0,1-.64,1.35,3.91,3.91,0,0,1-.68.83.84.84,0,0,1-.44.2,1.07,1.07,0,0,0-.4.15.74.74,0,0,0-.24.67v4.56h0a.53.53,0,0,0,.53.53h3a.53.53,0,0,0,.53-.53h0V79.4h0V77.78h8.62V79h0v.88h0a.52.52,0,0,0,.53.53h3.07a.53.53,0,0,0,.53-.53h0V75h0Z" transform="translate(-71.45 -17.3)"/><path class="cls-3" d="M102.59,83.7a18.74,18.74,0,0,0,26.13,4.5,18.5,18.5,0,0,0,4.5-4.5,54,54,0,0,1-15.31,2.6A54.13,54.13,0,0,1,102.59,83.7Z" transform="translate(-71.45 -17.3)"/><path class="cls-4" d="M117.91,86.3a54,54,0,0,0,15.31-2.6,26.72,26.72,0,0,1-15.42,5.2,25.66,25.66,0,0,1-15.21-5.2,54.13,54.13,0,0,0,15.32,2.6Z" transform="translate(-71.45 -17.3)"/><path class="cls-2" d="M170.16,78.34h-1.32V61.92h0a.67.67,0,0,0-.67-.67H155a3,3,0,0,0-.89.1,1.18,1.18,0,0,0-.62.38,1.32,1.32,0,0,0-.23.84v1.76c0,.6,0,1.24,0,1.93s-.06,4.15-.13,4.87-.16,1.44-.29,2.15a14,14,0,0,1-.53,2,8.76,8.76,0,0,1-.83,1.75,5,5,0,0,1-.91,1.09,1,1,0,0,1-.51.23,1.31,1.31,0,0,0-.54.2,1,1,0,0,0-.3.85v5.9h0a.66.66,0,0,0,.68.65h3.91a.66.66,0,0,0,.67-.66h0V82.59h11.11V85.3h0a.66.66,0,0,0,.66.67h4a.67.67,0,0,0,.67-.66h0V79h0a.67.67,0,0,0-.67-.67h0Zm-6.57,0h-7.46a7.58,7.58,0,0,0,1-2,16.26,16.26,0,0,0,.6-2.38,23.21,23.21,0,0,0,.31-2.4c.07-.8.09-4.22.09-4.8V65.57h5.5V78.34Z" transform="translate(-71.45 -17.3)"/><path class="cls-2" d="M205.6,70.47l6.88-7.8a.84.84,0,0,0-.08-1.18.82.82,0,0,0-.54-.2h-4.24a.84.84,0,0,0-.63.28L199.74,70v-7.9a.83.83,0,0,0-.83-.83h-3.54a.83.83,0,0,0-.83.83h0V82.29a.83.83,0,0,0,.83.83h3.54a.83.83,0,0,0,.82-.83h0V76.67l2.32-2.55,5.21,8.6a.83.83,0,0,0,.71.4h4a.83.83,0,0,0,.71-1.27l-7.07-11.38Z" transform="translate(-71.45 -17.3)"/><path class="cls-2" d="M229.38,77.27a.83.83,0,0,0-.81,0A12.21,12.21,0,0,1,223,78.58,6.38,6.38,0,1,1,223,65.83a11.58,11.58,0,0,1,5.4,1.37.83.83,0,0,0,1.12-.36.85.85,0,0,0,.09-.38V63.18a.83.83,0,0,0-.42-.72,13.27,13.27,0,0,0-6.32-1.54,11.29,11.29,0,1,0-.08,22.57A14,14,0,0,0,229.37,82a.84.84,0,0,0,.42-.73V78a.83.83,0,0,0-.4-.71Z" transform="translate(-71.45 -17.3)"/><path class="cls-2" d="M174.42,61.29h3.47a.83.83,0,0,1,.83.83v10.7L190,61.23a.84.84,0,0,1,.6-.25h.11a.83.83,0,0,1,.83.83h0V82.29a.83.83,0,0,1-.83.83h-3.48a.83.83,0,0,1-.83-.83h0V71.56L175.09,83.18a.81.81,0,0,1-.6.26h-.07a.83.83,0,0,1-.83-.83V62.12A.83.83,0,0,1,174.42,61.29Z" transform="translate(-71.45 -17.3)"/><path class="cls-2" d="M233.48,61.29H237a.83.83,0,0,1,.83.83v10.7L249.1,61.23a.83.83,0,0,1,.59-.25h.11a.84.84,0,0,1,.84.83V82.29a.84.84,0,0,1-.84.83h-3.48a.83.83,0,0,1-.82-.83h0V71.56L234.14,83.18a.79.79,0,0,1-.59.26h-.07a.83.83,0,0,1-.83-.83V62.12A.83.83,0,0,1,233.48,61.29Z" transform="translate(-71.45 -17.3)"/></svg>