<svg id="_дзен" data-name=" дзен" xmlns="http://www.w3.org/2000/svg" viewBox="0 0 553.1 553.1"><defs><style>.cls-1{fill:#ffdc3d;}</style></defs><title>dzen</title><path class="cls-1" d="M553.08,273.48V103.7q0-42.86-30.43-73.29T449.38,0H279.61c3.67,121.43,6.89,178.69,50.32,223.17C374.33,266.53,432.07,269.8,553.08,273.48Z" transform="translate(0.02 0.01)"/><path class="cls-1" d="M273.4,0H103.69Q60.84,0,30.41,30.41T0,103.7V273.49c121.18-3.68,178.67-6.93,223.1-50.33C266.51,178.68,269.73,121.42,273.4,0Z" transform="translate(0.02 0.01)"/><path class="cls-1" d="M0,279.7V449.38q0,42.86,30.43,73.27t73.28,30.44H273.42c-3.68-121.73-6.86-178.53-50.34-223.07C178.65,286.63,121.16,283.38,0,279.7Z" transform="translate(0.02 0.01)"/><path class="cls-1" d="M279.59,553.09H449.38q42.84,0,73.27-30.44t30.43-73.27V279.71c-121,3.68-178.75,6.94-223.15,50.31C286.45,374.56,283.27,431.36,279.59,553.09Z" transform="translate(0.02 0.01)"/></svg>