<?xml version="1.0" encoding="UTF-8"?>
<!DOCTYPE svg PUBLIC "-//W3C//DTD SVG 1.1//EN" "http://www.w3.org/Graphics/SVG/1.1/DTD/svg11.dtd">
<!-- Creator: CorelDRAW 2019 (64-Bit) -->
<svg xmlns="http://www.w3.org/2000/svg" xml:space="preserve" width="1200px" height="184px" version="1.1" shape-rendering="geometricPrecision" text-rendering="geometricPrecision" image-rendering="optimizeQuality" fill-rule="evenodd" clip-rule="evenodd"
viewBox="0 0 1200 184"
 xmlns:xlink="http://www.w3.org/1999/xlink"
 xmlns:xodm="http://www.corel.com/coreldraw/odm/2003">
 <g id="Слой_x0020_1">
  <metadata id="CorelCorpID_0Corel-Layer"/>
  <path fill="#F0F0F5" d="M1206.51 183.61l0 -72.45c-81.36,-53.83 -149.78,47.37 -191.45,5.83 -24.63,-24.55 -22.1,-58.24 -36.58,-87.55 -22.43,-45.41 -69.47,-31.43 -59.93,2.54 4.04,14.41 19.7,29.95 9.4,45.22 -10.39,15.4 -31.87,8.49 -43.98,-0.24 -25.1,-18.1 -43.47,-39.56 -74.53,-49.55 -45.03,-14.48 -56.97,5.57 -88.89,26.06 -31.41,20.17 -61.9,-6.26 -98.39,-10.03 -83.64,-8.64 17.89,143.25 -138.24,82.48 -82.17,-31.98 -79.81,-73.56 -178.01,-26.38 -127.84,61.43 -107.12,-33.72 -166.62,-40.63 -34.72,-4.04 -59.13,21.81 -72.58,50.79 -23.8,51.3 -21.96,47.42 -73.46,42.84l0 31.07 1213.26 0z"/>
 </g>
</svg>
