<svg id="Layer_1" data-name="Layer 1" xmlns="http://www.w3.org/2000/svg" viewBox="0 0 248.62 111.14"><defs><style>.cls-1{fill:#f37a1c;}.cls-2{fill:#2e2929;}</style></defs><title>deshev</title><rect class="cls-1" width="248.62" height="111.14"/><path class="cls-2" d="M419.45,16.27h6.82l0,19.34H419c-.69,0-1.14-.32-1.14-.73a.61.61,0,0,1,.58-.63c.45-.1.8-.32.8-.41a1.17,1.17,0,0,0,.21-.73l0-14.25c0-.2-.11-.51-.11-.61a1.83,1.83,0,0,0-.9-.41.85.85,0,0,1-.58-.73c0-.53.45-.85,1.14-.85Zm8,0h1.72a9.41,9.41,0,0,1,5.23,1.27,4.12,4.12,0,0,1,1.93,3.54,4.44,4.44,0,0,1-.58,2A4.5,4.5,0,0,1,434,24.6a10.46,10.46,0,0,1-1.25.63,17.82,17.82,0,0,1-1.94.41,16.58,16.58,0,0,1,1.7.41c.45.12.93.32,1.25.44a4.37,4.37,0,0,1,2.62,4.15,4.4,4.4,0,0,1-2.29,4,7.92,7.92,0,0,1-2.15.73,17.61,17.61,0,0,1-2.84.22h-1.73V34.17A2,2,0,0,0,429.68,32V28.77a3.16,3.16,0,0,0-.45-1.68,3.73,3.73,0,0,0-1.83-.73V24.91a2.34,2.34,0,0,0,1.73-.51,3,3,0,0,0,.56-1.86V20a2.13,2.13,0,0,0-2.28-2.19Zm-18.67,0h6.16v5.09a.64.64,0,0,1-.69.72.88.88,0,0,1-.9-.51A5,5,0,0,0,408.75,18Zm-1.14,0,0,19.34h-7.41c-.66,0-1-.32-1-.73a.59.59,0,0,1,.56-.63c.45-.1.8-.31.8-.41a1,1,0,0,0,.24-.73V18.85c0-.2-.1-.51-.1-.61a2.26,2.26,0,0,0-.93-.41.81.81,0,0,1-.56-.73c0-.53.35-.85,1-.85Zm3.06,12.49a2.62,2.62,0,0,0-1.93-2.09V25a3.22,3.22,0,0,0,1.94-2.06,3.08,3.08,0,0,1,.22-.73,1.25,1.25,0,0,1,.69-.21c.23,0,.58.09.58.22a1.59,1.59,0,0,1,.21.92v5.3c0,.73-.34,1.14-.79,1.14a.94.94,0,0,1-.91-.82m-1.94,5.4a5.63,5.63,0,0,0,2.84-1,6.36,6.36,0,0,0,1.84-2.49,1.35,1.35,0,0,1,.9-.83c.45,0,.8.42.8,1.05v4.77h-6.37Zm-41.1,1.51c-.69,0-1.14-.41-1.14-.82a.62.62,0,0,1,.59-.63c.45-.09.79-.31.79-.41a1.15,1.15,0,0,0,.22-.73V18.82c0-.19-.1-.51-.1-.61a2,2,0,0,0-.9-.41.84.84,0,0,1-.59-.73c0-.53.45-.84,1.15-.84h7.75c.66,0,1.11.32,1.11.85a.81.81,0,0,1-.66.73l-.59.1c-.21.09-.35.5-.35.92V35.58Zm28.25-19.41h.34c.8,0,1.25.32,1.25.85a.79.79,0,0,1-.67.73,3,3,0,0,0-.8.29,6.17,6.17,0,0,0-.12.72l0,14.26a2,2,0,0,0,.13.72,1.33,1.33,0,0,0,.8.32.76.76,0,0,1,.66.73c0,.41-.45.72-1.12.72h-9.58V34.13H389l0-15.29a1,1,0,0,0-.45-.92l-.56-.1a.85.85,0,0,1-.58-.73c0-.53.35-.85,1-.85ZM385.39,35.68l-9.1-.1V34.12h2.28l0-15.29a1.12,1.12,0,0,0-.45-.92l-.59-.1a.8.8,0,0,1-.55-.73c0-.53.34-.85,1-.85h7.75c.8,0,1.25.32,1.25.85a.83.83,0,0,1-.7.73,2.82,2.82,0,0,0-.79.29,6.56,6.56,0,0,0-.11.73ZM352.39,11a2.8,2.8,0,0,1,1.6.52,1.91,1.91,0,0,1,.68,1.45,1.59,1.59,0,0,1-.69,1.45,2.79,2.79,0,0,1-1.59.54,3,3,0,0,1-1.59-.54,1.94,1.94,0,0,1-.67-1.46,1.85,1.85,0,0,1,.56-1.33,2.41,2.41,0,0,1,1.7-.63m8.2,2a1.59,1.59,0,0,1-.69,1.45,2.78,2.78,0,0,1-1.59.53,3,3,0,0,1-1.59-.53,2,2,0,0,1-.66-1.46,1.81,1.81,0,0,1,.55-1.33,2.36,2.36,0,0,1,1.7-.63,2.77,2.77,0,0,1,1.6.51,1.93,1.93,0,0,1,.68,1.46m-3.41,13.52V24.94A2.74,2.74,0,0,0,359,23.08a1.19,1.19,0,0,1,1-1.14c.21,0,.55.09.55.22a1.54,1.54,0,0,1,.24.92v5.31c0,.72-.35,1.14-.8,1.14a1,1,0,0,1-.93-.83,2.72,2.72,0,0,0-1.91-2.09Zm0-10.3h6.14v5.09a.65.65,0,0,1-.69.73.86.86,0,0,1-.79-.51A5.27,5.27,0,0,0,357.19,18Zm-1.14,0,0,19.34h-7.3c-.69,0-1.14-.32-1.14-.73a.62.62,0,0,1,.58-.63c.45-.09.8-.31.8-.41a1.15,1.15,0,0,0,.21-.73l0-14.25c0-.19-.1-.51-.1-.6a2,2,0,0,0-.91-.42.83.83,0,0,1-.58-.72c0-.54.45-.85,1.14-.85Zm1.12,17.88a5.74,5.74,0,0,0,2.85-1A7.06,7.06,0,0,0,362,30.57c.21-.51.55-.82.79-.82.45,0,.8.41.8,1v4.78h-6.37Zm-29.84,4.75a1.09,1.09,0,0,1-.91.63c-.44,0-.68-.41-.68-1v-4a.79.79,0,0,1,.56-.63A4.68,4.68,0,0,0,329,32.53a4.33,4.33,0,0,0,1-3V20.36a2.78,2.78,0,0,0-1.59-2.6c-.45-.21-.79-.62-.79-.84,0-.42.45-.73,1.25-.73H336v1.45h-1.83c-1,0-1.81.22-2.05.63a5.28,5.28,0,0,0-.45,2.18v9.35a6.33,6.33,0,0,1-1.37,4.27H336v1.45h-4a5.32,5.32,0,0,0-4.68,3.31m10-22.65h7.2c.66,0,1.11.31,1.11.84a.81.81,0,0,1-.56.73,3.23,3.23,0,0,0-.79.29,7,7,0,0,0-.11.73l0,13.84a1.16,1.16,0,0,0,.56.92.85.85,0,0,0,.45.22c.24,0,.45.32.45.63v4.05c0,.63-.32,1-.8,1a1.29,1.29,0,0,1-.9-.63,5.35,5.35,0,0,0-4.67-3.33h-1.94Z" transform="translate(-275.93 24.3)"/><path class="cls-2" d="M446.69,16.18v1.55a1.81,1.81,0,0,0-1.36,2V32a4.38,4.38,0,0,0,.21,1.55,2.1,2.1,0,0,0,1.14.73v1.45A7.88,7.88,0,0,1,440.41,33,10.1,10.1,0,0,1,438,26a10.7,10.7,0,0,1,2.4-7.08,7.92,7.92,0,0,1,6.27-2.78m1.38,0a7.6,7.6,0,0,1,6,2.79,10.6,10.6,0,0,1,2.38,7.08,10.53,10.53,0,0,1-2.28,7,7.93,7.93,0,0,1-6.14,2.71V34.26a1,1,0,0,0,.8-.63,3.25,3.25,0,0,0,.34-1.65l0-12.26a1.94,1.94,0,0,0-1.14-2Z" transform="translate(-275.93 24.3)"/><path class="cls-2" d="M465.13,31.29v1.55a1.82,1.82,0,0,0-1.35,2l0,12.27a4.36,4.36,0,0,0,.22,1.55,2.05,2.05,0,0,0,1.14.72v1.46a7.88,7.88,0,0,1-6.26-2.72,10.12,10.12,0,0,1-2.38-7,10.62,10.62,0,0,1,2.4-7.08,8,8,0,0,1,6.27-2.78m1.38,0a7.61,7.61,0,0,1,6,2.79,10.65,10.65,0,0,1,2.38,7.08,10.55,10.55,0,0,1-2.29,6.95,7.92,7.92,0,0,1-6.13,2.71V49.38a1,1,0,0,0,.79-.63,3.14,3.14,0,0,0,.35-1.65V34.84a1.93,1.93,0,0,0-1.13-2Z" transform="translate(-275.93 24.3)"/><polygon class="cls-2" points="191.1 40.78 193.04 40.78 169.8 74.89 167.86 74.89 191.1 40.78"/><path class="cls-2" d="M437,44.52v6.32h-.91V44.52Zm-5.76,5.6h2.1a1.65,1.65,0,0,0,.76-.32,1,1,0,0,0,.35-.82,1.06,1.06,0,0,0-.37-.85,1.68,1.68,0,0,0-1.12-.31h-1.72Zm0-3h2a2.18,2.18,0,0,1,1.69.57,1.87,1.87,0,0,1,.52,1.33,1.64,1.64,0,0,1-.4,1.2,2.18,2.18,0,0,1-.87.52,2.55,2.55,0,0,1-.51.1l-.43,0h-2.87V44.52h.91Zm-15.73-1.87V44.5h5.32v.71h-2.21v5.6h-.92v-5.6Zm-10-.72h1.12l-3.23,2.91,3.43,3.4h-1.2l-3.17-3.3v3.3h-.92V44.49h.92v2.88Zm-14.25,0h.95L390,49.67a2,2,0,0,1-.78,1,2.12,2.12,0,0,1-.94.21h-.14l-.15,0-.23,0-.24,0v-.74l.26.06.27,0h.29l.18,0a.9.9,0,0,0,.38-.26,1.61,1.61,0,0,0,.34-.62l-2.58-4.75h1.11l1.94,3.8Zm-17.68.7,0,.78v0s0,.11,0,.16,0,.11,0,.17a12.78,12.78,0,0,1-.2,1.84,5,5,0,0,1-.87,1.9H376V45.18Zm4.21,4.89-.08,2.15H377V50.79h-5.27v1.43h-.8l-.06-2.14h.61a4.72,4.72,0,0,0,1-1.93,12.07,12.07,0,0,0,.27-2.37l0-1.31h4.14v5.6Zm-19.24.17.44,0a1.8,1.8,0,0,0,.66-.21,2.43,2.43,0,0,0,.81-.77,3.73,3.73,0,0,0,0-3.3,2.17,2.17,0,0,0-.89-.76,2.21,2.21,0,0,0-.54-.16l-.44,0a2.57,2.57,0,0,0-.45,0,2.08,2.08,0,0,0-.53.14,2.28,2.28,0,0,0-.89.77,2.81,2.81,0,0,0-.4,1.68,2.92,2.92,0,0,0,.36,1.63,2.43,2.43,0,0,0,.81.77,2,2,0,0,0,.65.2l.44,0m0,.72a2.94,2.94,0,0,1-2.47-1,3.71,3.71,0,0,1-.75-2.35c0-.1,0-.31,0-.63a3.19,3.19,0,0,1,1.24-2.19,3.73,3.73,0,0,1,4.39.43,3.61,3.61,0,0,1,.79,2.39c0,.11,0,.33,0,.64a3.28,3.28,0,0,1-.28,1A2.9,2.9,0,0,1,358.61,51Zm-16.67-3.44h1.66a2,2,0,0,0,1.14-.28,1.08,1.08,0,0,0,.42-1,.91.91,0,0,0-.45-.89,2.41,2.41,0,0,0-1.11-.23h-1.66Zm1.85-3.08a3.09,3.09,0,0,1,1.66.4,1.56,1.56,0,0,1,.64,1.42v.07a2.17,2.17,0,0,1-.49,1.31,2.36,2.36,0,0,1-1.9.6h-1.76v2.52H341V44.44Zm-17.31,6.3h-.92V44.42h5.26v6.32h-.91V45.14h-3.44Z" transform="translate(-275.93 24.3)"/></svg>