<svg id="Layer_1" data-name="Layer 1" xmlns="http://www.w3.org/2000/svg" xmlns:xlink="http://www.w3.org/1999/xlink" viewBox="0 0 640.61 253.58"><defs><style>.cls-1{fill:#231f20;}.cls-2{fill:url(#radial-gradient);}.cls-3{fill:url(#radial-gradient-2);}.cls-4{fill:url(#radial-gradient-3);}.cls-5{fill:url(#radial-gradient-4);}.cls-6{fill:url(#radial-gradient-5);}.cls-7{fill:url(#radial-gradient-6);}.cls-8{fill:url(#radial-gradient-7);}.cls-9{fill:url(#radial-gradient-8);}.cls-10{fill:url(#radial-gradient-9);}.cls-11{fill:url(#radial-gradient-10);}.cls-12{fill:url(#radial-gradient-11);}.cls-13{fill:url(#radial-gradient-12);}</style><radialGradient id="radial-gradient" cx="996.54" cy="-2715.66" r="19.84" gradientTransform="translate(-1235.62 2631.06) rotate(9.74)" gradientUnits="userSpaceOnUse"><stop offset="0" stop-color="#fff799"/><stop offset="1" stop-color="#ffdb00"/></radialGradient><radialGradient id="radial-gradient-2" cx="1027.88" cy="-2720.01" r="20.39" xlink:href="#radial-gradient"/><radialGradient id="radial-gradient-3" cx="1059.58" cy="-2726.52" r="19.92" xlink:href="#radial-gradient"/><radialGradient id="radial-gradient-4" cx="1087.49" cy="-2728.3" r="20.4" xlink:href="#radial-gradient"/><radialGradient id="radial-gradient-5" cx="1117.6" cy="-2725.98" r="21.15" xlink:href="#radial-gradient"/><radialGradient id="radial-gradient-6" cx="1140.43" cy="-2741.54" r="19.84" xlink:href="#radial-gradient"/><radialGradient id="radial-gradient-7" cx="1181.8" cy="-2741.56" r="24.01" xlink:href="#radial-gradient"/><radialGradient id="radial-gradient-8" cx="1222.31" cy="-2744.08" r="18.23" xlink:href="#radial-gradient"/><radialGradient id="radial-gradient-9" cx="952.74" cy="-2724.24" r="14.68" xlink:href="#radial-gradient"/><radialGradient id="radial-gradient-10" cx="961.92" cy="-2730.07" r="0.01" xlink:href="#radial-gradient"/><radialGradient id="radial-gradient-11" cx="971.29" cy="-2727.67" r="14.52" xlink:href="#radial-gradient"/><radialGradient id="radial-gradient-12" cx="967.82" cy="-2697.2" r="12.05" xlink:href="#radial-gradient"/></defs><title>header</title><polygon class="cls-1" points="484.26 74.38 443.56 85.36 460.12 49.3 422.42 80.69 409.84 49.33 387.96 77.42 346.95 70.16 331.21 71.69 325.26 85.68 292.17 82.83 264.58 66.72 237.27 95.67 216.59 79.18 177.14 99.72 147.41 96.96 142.76 115.93 108.27 100.32 111.23 120.88 79.81 107.78 85.31 129.41 41.59 125.94 88.8 158.82 103.58 141.22 117.39 152.5 130.83 145.55 136.6 153.31 173.78 144.21 217.6 191.9 247.87 170.89 288.23 196.29 315.57 191.17 324.5 193.97 341.93 180.55 381.06 204.06 424.58 180.22 459.07 196.86 458.71 174.66 484.26 172.16 479.11 154.53 484.26 74.38"/><polygon class="cls-1" points="187.98 66.33 173.03 73.82 163 65.66 172.24 75.14 155.38 98.45 165.17 102.51 174.8 75.8 189.18 68.3 202.25 69.76 190.39 66.34 197.95 54.47 194.23 44.15 198.69 34.52 193.7 43.31 180.21 36.84 193.67 44.74 196.59 54.16 187.98 66.33"/><polygon class="cls-1" points="307.43 21.05 313.3 26.09 317.52 35.99 315.54 46.48 298.03 45.83 287.6 38.33 297.01 46.94 294.67 62.53 298.18 47.25 316.05 47.91 327.39 61.02 330.88 73.45 323.64 80.36 319.51 88.54 335.22 82.98 335.77 72.44 328.48 57.39 334.48 46.18 344.98 44.26 361.57 55.54 369.31 49.28 361.35 54.32 345.16 42.35 347.73 35.69 354.93 34.02 347.26 34.92 344.14 43.03 333.77 44.66 326.18 35.95 332.94 45.84 326.89 55.32 316.49 46.15 319.07 36.33 323.75 34.2 318.51 34.75 315.22 26.48 324.28 13.04 314.24 25.22 307.43 21.05"/><polygon class="cls-1" points="65.98 206.11 71.59 200.78 75.3 190.67 72.79 180.29 55.33 181.84 45.3 189.86 54.26 180.78 51.13 165.33 55.41 180.41 73.22 178.85 83.95 166.41 86.8 153.82 79.16 146.04 74.62 138.09 90.59 142.85 91.67 153.35 85.16 168.74 91.72 179.63 91.08 181.19 83.95 190.27 90.2 180.05 83.67 170.89 73.75 180.58 76.83 190.25 81.61 192.14 76.35 191.86 73.49 200.29 83.22 213.25 72.58 201.59 65.98 206.11"/><polygon class="cls-1" points="175.46 181.12 185.38 172.87 184.05 162.04 185.29 152.97 195.07 166.46 189.54 175.45 175 183.71 173.59 196.34 181.14 203.88 201.2 204 204.02 213.55 200.32 204.89 180.2 205.55 178.54 212.5 183.52 217.96 177.72 212.87 179.75 204.42 172.13 197.19 160.95 200.06 172.12 195.75 172.51 184.51 175.46 181.12"/><polygon class="cls-1" points="300.95 220.19 313.87 209.57 325.46 215.31 314.35 208.1 318.77 189.76 315.57 189.07 311.7 208.03 299.34 218.53 286.27 220.01 298.6 220.71 293.85 233.97 299.76 243.2 297.55 253.58 300.47 243.9 315.06 247.22 300.18 242.5 295.25 233.96 300.95 220.19"/><polygon class="cls-1" points="410.25 28.91 414.36 45.12 427.09 47.37 413.87 46.58 406.56 63.98 403.57 62.64 411.7 45.07 407.97 29.29 398.32 20.35 408.67 27.09 412.7 13.6 422.94 9.67 427.31 0 423.92 9.53 437.63 15.5 422.86 10.49 413.82 14.44 410.25 28.91"/><polygon class="cls-1" points="567.61 55.45 568.07 63.17 563.88 73.09 554.96 78.96 543.26 65.91 541.41 53.2 541.75 65.95 528.92 75.1 542.35 67.01 554.29 80.31 552.74 97.58 546.23 108.73 536.23 108.33 517.88 114.34 542.28 123.33 550.36 111.54 556.11 95.84 568.34 92.37 577.02 98.59 580.43 118.35 590.32 119.56 581.16 117.34 578.51 97.38 585.09 94.61 591.29 98.62 585.32 93.73 577.32 97.12 568.94 90.79 569.93 79.29 567.51 91.02 556.49 93.26 555.86 79.41 564.71 74.44 569.49 76.33 565.46 72.94 569.13 64.83 585.09 62 569.35 63.25 567.61 55.45"/><polygon class="cls-1" points="633.59 126.6 630.3 131.24 623.34 135.05 615.52 134.41 614.81 121.69 619.59 113.57 613.93 121.04 602.36 120.53 613.78 121.91 614.52 134.89 605.69 144.1 596.83 147.58 591.27 142.87 577.98 138.1 587.85 154.18 597.9 151.04 608.42 144.61 617.03 148.1 619.15 155.55 612.03 168.41 617.14 173.54 612.91 168.16 620.57 155.53 625.62 156.88 627.33 161.96 626.15 156.49 620 154.85 618.1 147.46 623.96 141.31 617.18 146.96 609.83 143.3 615.84 135.07 623.2 136.19 625.07 139.41 624.32 135.66 630.15 132.66 640.61 138.18 631 131.85 633.59 126.6"/><polygon class="cls-1" points="424.37 207.2 407.75 205.31 401.14 216.42 406.55 204.33 392.87 191.33 395.18 189.02 408.73 202.84 424.81 204.94 436.59 199.07 426.62 206.36 437.81 214.91 437.86 225.87 445.36 233.38 437.65 226.84 427.21 237.56 437.13 225.51 436.63 215.67 424.37 207.2"/><polygon class="cls-1" points="454.87 110.63 485.41 101.11 506.72 104.87 495.23 119.94 536.23 108.33 544 127.6 567.15 120.88 591.29 153.49 551 155.39 523.8 149.09 500.16 162.24 462.87 153.37 454.87 110.63"/><polygon class="cls-1" points="562.34 167.86 552.86 159.1 554.76 148.36 554 139.23 543.52 152.19 548.57 161.46 562.66 170.47 563.4 183.16 555.46 190.29 535.43 189.36 532.1 198.75 536.25 190.29 556.31 192.01 557.6 199.03 552.35 204.22 558.41 199.45 556.82 190.9 564.81 184.09 575.83 187.54 564.9 182.65 565.1 171.4 562.34 167.86"/><polygon class="cls-1" points="43.18 108.04 42.24 120.92 61.65 133.64 50.14 133.34 37.5 122.12 41.63 105.92 33.51 96.14 22.84 96.36 8.84 110.72 0 106.13 8.81 109.48 22.28 94.52 18.43 88.51 11.04 88.31 18.73 87.66 23.41 94.98 33.91 94.5 39.59 84.45 34.95 95.49 42.78 103.57 43.18 108.04"/><path class="cls-2" d="M210.47,127.44c-2.8.45-4.68.72-5.66.82q-.36,6.11-.11,14.72a55.1,55.1,0,0,1-12.3,2.09q1-21.18,1.93-34.61c.2-5,.35-7.9.48-8.64q6.42-2.86,18.45-1.61,8.64,2.3,9.39,12.11Q222.29,125.12,210.47,127.44Zm3-12.77c.09-1.93-.44-3.31-1.63-4.14a7.21,7.21,0,0,0-6.5-.55c-.29,3.22-.43,6.43-.4,9.61C210.2,119,213,117.35,213.49,114.67Z" transform="translate(27.9 5.92)"/><path class="cls-3" d="M251.56,114.24a119.8,119.8,0,0,0-16.48.56c-.17,1.5-.25,2.74-.26,3.69,5.54-.16,8.57-.14,9.07,0l-.42,8.66-8.25.46-.12.13c0,2.2,0,3.65,0,4.36l.21.08a37.4,37.4,0,0,0,5.24-.34,97.4,97.4,0,0,1,10.22-.5,57.42,57.42,0,0,1,.43,12.86c-2.94.05-12,.54-27,1.52q.1-1.29.31-7.59t0-20.55c0-.65,0-2.29.05-4.91a90.5,90.5,0,0,1-.12-9.7q15.57.18,28.11-.1A43.94,43.94,0,0,1,251.56,114.24Z" transform="translate(27.9 5.92)"/><path class="cls-4" d="M278.28,118.47q-9.57-1.09-11.37,5.34c-1.18,4.29-.49,7.6,2.06,9.88a18.74,18.74,0,0,0,1.84.8c2.18.57,4.51,0,7-1.82a18.06,18.06,0,0,1,2.07-1.74l3.25,13a10.58,10.58,0,0,1-5.27,2q-17.53,3.19-23.46-12.78-2.21-6.7.2-16.32a20.84,20.84,0,0,1,3.56-6.37,27.6,27.6,0,0,1,7.9-6.68,19.61,19.61,0,0,1,7-2.38c2.58-.37,3.67-.45,3.29-.24Z" transform="translate(27.9 5.92)"/><path class="cls-5" d="M296.19,123.29c1.77-.35,2.7-.53,2.79-.52a19.8,19.8,0,0,0,2.85-.48q.42-5.3,1.48-16.51a84.1,84.1,0,0,1,12-1.17q-3.52,29.16-5,42.13a55.52,55.52,0,0,1-10.65,2.73q.24-5,1.3-17.59l-5.53.83c-.1,1.31-.63,5.88-1.62,13.69-2.32.38-4.33.71-6.06,1l-5.46.61q2.85-26.17,3.5-44.66a123.22,123.22,0,0,1,12.67-.69A179.32,179.32,0,0,0,296.19,123.29Z" transform="translate(27.9 5.92)"/><path class="cls-6" d="M319.07,108.71c4.43,6.7,7.42,11.56,11.28,13.91,1.5-3.35,3.15-7.58,4.92-12.71a63,63,0,0,1,12,6.57q-4.55,13.5-18.12,42.38A41.37,41.37,0,0,1,318.7,153q4.1-10.71,3.77-9.65c-.21.71,1.14-2.82,4.09-10.56-2.84-1.58-9.44-8.22-13.91-15.07Z" transform="translate(27.9 5.92)"/><path class="cls-7" d="M369.86,112.91a82.3,82.3,0,0,0-9.76.09q-.92,10.85-1.44,31.4a92.4,92.4,0,0,1-10.73.38l1.88-31.89a90.7,90.7,0,0,0-10.2.53,63.58,63.58,0,0,1,.16-12.08q15.56.69,31.28.43A49.74,49.74,0,0,1,369.86,112.91Z" transform="translate(27.9 5.92)"/><path class="cls-8" d="M389.64,122.74q11.69,1.4,11.18,14.2-1.43,9.92-10.23,12.88-12.16,2.19-18.4-.17-.12-1.1.11-8.64,0-13.36.42-34.54a52.35,52.35,0,0,1,12.2,1.14q-.85,8.67-.9,14.75C385,122.38,386.86,122.5,389.64,122.74Zm.24,16.84a5.06,5.06,0,0,0,1.91-4.27q-.41-4-8.21-4.26c-.24,3.19-.32,6.39-.26,9.6A7.6,7.6,0,0,0,389.88,139.58Zm14.84-31.11a24.6,24.6,0,0,1,11.49.12q-1.84,30.22-2.81,42.92a24.13,24.13,0,0,1-9.44-.16.2.2,0,0,0-.08-.19Q403.88,137.39,404.72,108.47Z" transform="translate(27.9 5.92)"/><path class="cls-9" d="M448.12,125.56a120.24,120.24,0,0,0-16.35-2.08,35.73,35.73,0,0,0-.85,3.6c5.49.73,8.48,1.23,8.95,1.48l-1.8,8.48-8.22-.86-.14.1c-.35,2.18-.57,3.62-.68,4.31l.2.12a37.91,37.91,0,0,0,5.22.49,98,98,0,0,1,10.18,1.15A57.84,57.84,0,0,1,443,155.1q-4.38-.63-26.92-2.81c.21-.83.71-3.31,1.52-7.43s1.9-10.88,3.27-20.29c.1-.65.37-2.26.83-4.84a92.92,92.92,0,0,1,1.42-9.59q15.35,2.65,27.78,4.38A44.19,44.19,0,0,1,448.12,125.56Z" transform="translate(27.9 5.92)"/><path class="cls-10" d="M169.16,123.89q1.23.1,2.43.24c.71.07,1.4.15,2.1.24a1,1,0,0,0,.17-.39.52.52,0,0,1,.15-.24l-.15.15,2.09-2.41c-.1-2.23-.19-4.47-.26-6.7l-4.12-5.13,0,0v0c-.23-2-.44-3.91-.66-5.87l-.83-2L169,100.64s-.08,0-.11,0l-1,1.33a3.43,3.43,0,0,1-.24.33s-.05.13-.05.07v-.11a1.48,1.48,0,0,0,0-.21c0-.29,0-.57,0-.85l.06-1.7a0,0,0,0,1,0,0h0a.11.11,0,0,0,0,0c0-.17,0-.34.05-.51.09-.89.2-1.78.31-2.67s.28-2.1.45-3.14c-.24-.31-.47-.64-.71-.95-5,.57-10.08,1.1-15.12,1.56.41,7.3,1,12.6,1.93,15.83a121.45,121.45,0,0,1,13.25-2.49Z" transform="translate(27.9 5.92)"/><path class="cls-11" d="M174.41,103.13v0Z" transform="translate(27.9 5.92)"/><path class="cls-12" d="M196.38,92q-10.45.15-20.85,0l0,.5v0c-.36.84-.73,1.69-1.1,2.53l-1.08,2.46c.82,1.1,1.62,2.21,2.41,3.33l.06,0,.36.11,1.45.47L179,102l.36.11.19.06s0,.06,0,.09l0,.1c0,.14,0,.28-.08.42s-.17.13-.29.13l-3-.14-.75,0-.38,0c-.06,0-.15-.08-.16,0,.06,2.5.07,5,.06,7.52.8,1.17,1.57,2.37,2.35,3.55l0,0v0l.1,1.32c0,.44.08.88.09,1.33l.06,2.35c0,.2.05.39.08.58.17.6.34,1.21.5,1.81l.52,2,1.92.7.2,0q.5-10.08,1.1-17.09a109.28,109.28,0,0,1,12.88-.09A65.46,65.46,0,0,0,196.38,92Z" transform="translate(27.9 5.92)"/><path class="cls-13" d="M181,124.88H181l-2-.67s0,.05,0,.07.05.22,0,.17l-.35-.15c-.14,0-.16-.2-.25-.31l-.49-.63-.5-.63c-.08-.1-.16-.21-.25-.31l-.12-.16s-.07-.21-.12-.1h0l-.86,2.2h0c-1,1.13-2,2.24-3,3.35,0,.63-.07,1.27-.11,1.9v.05l-.92,2.44,0,2.38,0,2.42,0-.29a4.63,4.63,0,0,1,0,.74,1,1,0,0,1-.07.41c-.08.12-.15.24-.22.36l-.06.09s0,0,0-.06l0-.21.06-.43a1.31,1.31,0,0,0,0-.28c-.15-.86-.28-1.72-.4-2.58s-.24-1.79-.36-2.68v-.08c.34-.93.71-1.85,1.06-2.78-.08-1.11-.13-1.83-.18-3,0,0,0,0,0,0h0a6.65,6.65,0,0,0-1.75-.67c-.78-.16-1.57-.34-2.35-.52l-.32,25.12a122.06,122.06,0,0,0,14.14-1.15q-.28-13.66-.29-24.1Z" transform="translate(27.9 5.92)"/></svg>