<svg id="Layer_1" data-name="Layer 1" xmlns="http://www.w3.org/2000/svg" viewBox="0 0 368.64 111.14"><defs><style>.cls-1{fill:#ed1c24;}.cls-2{fill:#fff;}</style></defs><title>megam</title><rect class="cls-1" width="368.64" height="111.14"/><polygon class="cls-2" points="316.21 45.56 284.08 45.56 284.08 51.75 294.4 51.75 294.4 65.67 305.89 65.67 305.89 51.75 316.21 51.75 316.21 45.56"/><polygon class="cls-2" points="150.84 45.39 125.47 45.4 125.47 65.51 136.96 65.51 136.96 51.67 150.84 51.67 150.84 45.39"/><polygon class="cls-2" points="124.21 50.77 124.21 45.39 97.06 45.4 97.06 65.51 124.21 65.51 124.21 60.13 108.54 60.13 108.54 57.71 124.21 57.71 124.21 53.19 108.54 53.19 108.54 50.77 124.21 50.77"/><polygon class="cls-2" points="78.09 45.4 74.25 56.03 70.42 45.4 52.43 45.4 52.43 65.51 62.55 65.51 62.55 51.39 68.11 65.51 80.4 65.51 84.78 54.37 84.78 65.51 94.91 65.51 94.91 45.4 78.09 45.4"/><polygon class="cls-2" points="205.56 45.4 201.72 56.03 197.89 45.4 179.9 45.4 179.9 65.51 190.03 65.51 190.03 51.39 195.58 65.51 207.87 65.51 212.25 54.37 212.25 65.51 222.38 65.51 222.38 45.4 205.56 45.4"/><path class="cls-2" d="M151.26,41.23h13.06l-10-20.12H137.65l-10,20.11h13.07l1.41-3.81h7.7ZM144.14,32l1.85-5,1.87,5Z" transform="translate(92.87 24.28)"/><polygon class="cls-2" points="151.13 58.16 159.77 58.16 162.52 49.88 165.27 58.16 173.91 58.16 167.44 62.96 168.13 65.75 180.85 65.75 170.86 45.64 154.18 45.64 144.19 65.75 156.91 65.75 157.59 62.96 151.13 58.16"/><path class="cls-2" d="M187.73,21.18H163.34V41.29h11.47V35.78h12.91c3.62,0,6.53-3.27,6.53-7.3S191.34,21.18,187.73,21.18Zm-7.66,10.07h-5.25V25.74h5.25a2.75,2.75,0,0,1,0,5.5h0Z" transform="translate(92.87 24.28)"/></svg>