<svg id="Layer_4" data-name="Layer 4" xmlns="http://www.w3.org/2000/svg" viewBox="0 0 174.09 13.28"><defs><style>.cls-1{fill:#df0002;}</style></defs><title>megamart</title><polygon class="cls-1" points="174.09 0 152.88 0 152.88 4.09 159.7 4.09 159.7 13.28 167.28 13.28 167.28 4.09 174.09 4.09 174.09 0"/><polygon class="cls-1" points="64.95 0 48.2 0.01 48.2 13.28 55.78 13.28 55.78 4.14 64.95 4.14 64.95 0"/><polygon class="cls-1" points="47.37 3.55 47.37 0 29.45 0.01 29.45 13.28 47.37 13.28 47.37 9.73 37.03 9.73 37.03 8.13 47.37 8.13 47.37 5.15 37.03 5.15 37.03 3.55 47.37 3.55"/><polygon class="cls-1" points="16.94 0 14.4 7.02 11.87 0 0 0 0 13.28 6.68 13.28 6.68 3.96 10.35 13.28 18.46 13.28 21.35 5.92 21.35 13.28 28.03 13.28 28.03 0 16.94 0"/><polygon class="cls-1" points="101.06 0 98.53 7.02 96 0 84.13 0 84.13 13.28 90.81 13.28 90.81 3.96 94.47 13.28 102.59 13.28 105.47 5.92 105.47 13.28 112.16 13.28 112.16 0 101.06 0"/><path class="cls-1" d="M131.72,31.53h8.62l-6.59-13.28h-11l-6.59,13.28h8.62L125.7,29h5.08ZM127,25.47l1.22-3.28,1.23,3.28Z" transform="translate(-5.21 -18.25)"/><polygon class="cls-1" points="65.14 8.26 70.84 8.26 72.66 2.8 74.47 8.26 80.17 8.26 75.91 11.44 76.36 13.28 84.75 13.28 78.16 0 67.15 0 60.56 13.28 68.95 13.28 69.4 11.44 65.14 8.26"/><path class="cls-1" d="M155.79,18.26h-16.1V31.53h7.57V27.89h8.52a4.58,4.58,0,0,0,4.31-4.82A4.57,4.57,0,0,0,155.79,18.26Zm-5.06,6.64h-3.46V21.27h3.46a1.82,1.82,0,1,1,0,3.63Z" transform="translate(-5.21 -18.25)"/></svg>