<svg id="Слой_1" data-name="Слой 1" xmlns="http://www.w3.org/2000/svg" viewBox="0 0 205.75 111.14"><defs><style>.cls-1{fill:#ccd102;}.cls-2{fill:#31533a;}</style></defs><title>vikt</title><rect class="cls-1" width="205.75" height="111.14"/><path class="cls-2" d="M2.55,379.92a4.26,4.26,0,0,1-2.77.92c-.23,0-.35,0-.51,0l-1.39-.1a.34.34,0,0,1-.31-.34v-7a.33.33,0,0,1,.27-.33l1-.09a5.33,5.33,0,0,1,3.36,1,3.92,3.92,0,0,1,1.43,3.27,3.48,3.48,0,0,1-1.08,2.68m-5-15.26a.34.34,0,0,1,.26-.37,5.79,5.79,0,0,1,1.15-.1,2.81,2.81,0,0,1,2,.74,3,3,0,0,1,.73,2.15,2.72,2.72,0,0,1-1.22,2.45,3.85,3.85,0,0,1-2.18.54l-.45-.06a.33.33,0,0,1-.28-.33ZM4,370.84H4c-.11,0-.17-.22-.17-.22a.38.38,0,0,1,.17-.4,6,6,0,0,0,1.71-1.33,4.57,4.57,0,0,0,.87-2.95,4.33,4.33,0,0,0-1.92-3.73,8.92,8.92,0,0,0-5.29-1.29h-6.1s-.28,0-.31.34v22.31a.32.32,0,0,0,0,.17.29.29,0,0,0,.26.16h3.62c1.88,0,3.19.08,3.93,0a8.84,8.84,0,0,0,3.44-.81,7.66,7.66,0,0,0,2.85-2.64,6.34,6.34,0,0,0,1.1-3.69,5.66,5.66,0,0,0-1.56-4.07A6.58,6.58,0,0,0,4,370.84" transform="translate(33.05 -325.4)"/><path class="cls-2" d="M27.83,360.92H24.6a.5.5,0,0,0-.38.2l-7.88,12.09h0a.41.41,0,0,1-.54.14.48.48,0,0,1-.26-.39v-11.7a.34.34,0,0,0-.32-.34h-4a.34.34,0,0,0-.31.34v22.27a.36.36,0,0,0,.33.35h2.5a.48.48,0,0,0,.38-.21h0l8.55-12.83a.49.49,0,0,1,.54-.14.53.53,0,0,1,.29.44v12.4a.33.33,0,0,0,.32.33h4a.35.35,0,0,0,.28-.33V361.26a.34.34,0,0,0-.32-.34" transform="translate(33.05 -325.4)"/><path class="cls-2" d="M129.68,360.92h-3.23a.5.5,0,0,0-.38.2l-7.88,12.09h0a.41.41,0,0,1-.54.14.48.48,0,0,1-.26-.39v-11.7a.34.34,0,0,0-.32-.34h-4a.34.34,0,0,0-.31.34v22.27a.36.36,0,0,0,.33.35h2.5a.48.48,0,0,0,.38-.21h0l8.56-12.83a.47.47,0,0,1,.53-.14.53.53,0,0,1,.29.44v12.4a.33.33,0,0,0,.32.33h4a.35.35,0,0,0,.28-.33V361.26a.34.34,0,0,0-.32-.34" transform="translate(33.05 -325.4)"/><path class="cls-2" d="M67.4,360.92H51.71a.33.33,0,0,0-.31.34v3.9a.33.33,0,0,0,.3.33h5a.49.49,0,0,1,.43.48v17.58a.34.34,0,0,0,.31.34h4a.34.34,0,0,0,.32-.31V366a.48.48,0,0,1,.42-.49h5.2a.33.33,0,0,0,.32-.33v-3.9a.34.34,0,0,0-.32-.34" transform="translate(33.05 -325.4)"/><path class="cls-2" d="M103.91,370.07a4.53,4.53,0,0,1-3.41,1.63.5.5,0,0,1-.52-.45V364.4a.49.49,0,0,1,.32-.34h0a2.24,2.24,0,0,1,.45-.07,3.9,3.9,0,0,1,3.62,1.74,3.58,3.58,0,0,1-.51,4.35m3.81-7.52a9.09,9.09,0,0,0-5.61-1.63H95.59a.42.42,0,0,0-.32.39v22.24a.34.34,0,0,0,.32.34h4.07c.29-.06.32-.26.32-.32V376a.5.5,0,0,1,.44-.52,11.5,11.5,0,0,0,6.83-2.62,7.08,7.08,0,0,0,2.65-5.44,6,6,0,0,0-2.18-4.87" transform="translate(33.05 -325.4)"/><path class="cls-2" d="M80.48,379a7,7,0,1,1,7-7,7,7,0,0,1-7,7m0-18.75A11.76,11.76,0,1,0,92.22,372,11.74,11.74,0,0,0,80.48,360.2" transform="translate(33.05 -325.4)"/><path class="cls-2" d="M79,357.84a.54.54,0,0,0,.31.17,21.66,21.66,0,0,0,4.16-.55,10.07,10.07,0,0,0,3.1-1.19,9.64,9.64,0,0,0,2-1.62,9.42,9.42,0,0,0,1.3-1.66,9,9,0,0,0,.74-1.61,1.9,1.9,0,0,0,.1-.28.67.67,0,0,0-.07-.6h0a.52.52,0,0,0-.3-.18,21.67,21.67,0,0,0-4.17.56,10.41,10.41,0,0,0-3.1,1.18,9.69,9.69,0,0,0-2,1.63,9,9,0,0,0-1.3,1.65A8.77,8.77,0,0,0,79,357a1.33,1.33,0,0,0-.1.28.65.65,0,0,0,.07.59Z" transform="translate(33.05 -325.4)"/><path class="cls-2" d="M143.46,371.16a.49.49,0,0,1-.39.36,4.53,4.53,0,0,1-4.58-2.76,3.63,3.63,0,0,1,3.15-4.88,7,7,0,0,1,1.42,0,.51.51,0,0,1,.4.4Zm4.41-10.33h-7a7.74,7.74,0,0,0-5.18,1.57,6.35,6.35,0,0,0-.63,8.76,9.75,9.75,0,0,0,2.83,2,.51.51,0,0,1,.22.68l-2.4,4.8-2.18,4.67,0,0a.35.35,0,0,0,.09.4.38.38,0,0,0,.2.08h1.09a4.69,4.69,0,0,0,4-1.81,62.38,62.38,0,0,0,3.17-5.87v0s0-.05,0-.08l.06-.13a.9.9,0,0,1,.77-.55.5.5,0,0,1,.5.54v7.6a.34.34,0,0,0,.32.33h4.09a.33.33,0,0,0,.33-.33V361.16a.33.33,0,0,0-.33-.33" transform="translate(33.05 -325.4)"/><path class="cls-2" d="M47.8,381.38l0,0-6.37-9h0a.9.9,0,0,1-.09-1v0l.13-.17,7.16-9.64h0a.35.35,0,0,0,0-.39.31.31,0,0,0-.25-.14H43.84a.52.52,0,0,0-.36.18l-6.3,8.33a.45.45,0,0,1-.53.17.49.49,0,0,1-.31-.47h0v-7.88a.33.33,0,0,0-.31-.34h-4s-.27,0-.31.34v22.29a.34.34,0,0,0,.31.34h4a.33.33,0,0,0,.31-.34v-9.31a.35.35,0,0,1,.21-.27.31.31,0,0,1,.36.14l5.72,8.36a3.36,3.36,0,0,0,1.5,1.09,6.15,6.15,0,0,0,2.27.33H49a.34.34,0,0,0,.24-.54Z" transform="translate(33.05 -325.4)"/><path class="cls-2" d="M130.44,396.56v-2.1h-7.91v2.1h2.61V405h2.69v-8.48Zm-16.12,2.61a3.53,3.53,0,0,1,.7-2.25,2.19,2.19,0,0,1,1.72-.76,1.89,1.89,0,0,1,1.48.6,2.62,2.62,0,0,1,.54,1.8Zm7-.14a6.06,6.06,0,0,0-.3-2,4.18,4.18,0,0,0-.89-1.52,3.79,3.79,0,0,0-1.42-1,5.29,5.29,0,0,0-1.94-.34,5.23,5.23,0,0,0-2.07.4,4.31,4.31,0,0,0-1.55,1.14,5.48,5.48,0,0,0-1,1.75,7.15,7.15,0,0,0-.33,2.23,7,7,0,0,0,.34,2.24,4.84,4.84,0,0,0,1,1.75,4.48,4.48,0,0,0,1.67,1.14,6.07,6.07,0,0,0,2.31.41,11.16,11.16,0,0,0,2.2-.22,7.16,7.16,0,0,0,1.71-.55l-.77-2A6.61,6.61,0,0,1,119,403a7.18,7.18,0,0,1-1.59.18,3.35,3.35,0,0,1-2-.56,2.54,2.54,0,0,1-1-1.75l6.81-.92a2.45,2.45,0,0,0,0-.46Zm-10.13,6-1.71-3.51a5.43,5.43,0,0,0-1-1.43,4,4,0,0,0-1.35-.93l3.86-4.71H108l-3.47,4.65h0v-4.65h-2.64V405h2.64v-5a2.09,2.09,0,0,1,1.4.5,3.59,3.59,0,0,1,.91,1.23l1.5,3.22Zm-14.23-4a3.34,3.34,0,0,1-.48,1.08,2.35,2.35,0,0,1-.8.71,2.26,2.26,0,0,1-1.1.26,4.59,4.59,0,0,1-.73-.06,2.28,2.28,0,0,1-.53-.14v-6.4a1.6,1.6,0,0,1,.52-.16,4.2,4.2,0,0,1,.72-.06,2.22,2.22,0,0,1,1.9.9,4.2,4.2,0,0,1,.65,2.5,5.87,5.87,0,0,1-.15,1.37m1.49-5.41a5.14,5.14,0,0,0-3.93-1.44,10.62,10.62,0,0,0-2.24.23,6.58,6.58,0,0,0-1.63.54v14.27h2.67v-4.34a3.52,3.52,0,0,0,.68.17,4.91,4.91,0,0,0,.86.07,5.48,5.48,0,0,0,2.14-.39,4.38,4.38,0,0,0,1.55-1.12,4.62,4.62,0,0,0,.94-1.72,7.51,7.51,0,0,0,.31-2.23,5.7,5.7,0,0,0-1.35-4m-12.71,7.5a2.75,2.75,0,0,1-.64.15,6.36,6.36,0,0,1-.87.06,2.77,2.77,0,0,1-1.62-.41,1.37,1.37,0,0,1-.56-1.16,1.4,1.4,0,0,1,.31-.94,1.94,1.94,0,0,1,.8-.55,4.79,4.79,0,0,1,1.17-.27c.45,0,.92-.08,1.41-.1ZM88.31,398a3.51,3.51,0,0,0-1.1-2.9,5,5,0,0,0-3.12-.87,9.3,9.3,0,0,0-2.21.25,10.27,10.27,0,0,0-1.72.52l.67,1.8c.18-.07.39-.15.63-.22l.76-.2c.26-.06.53-.11.8-.15a5.09,5.09,0,0,1,.77-.06,2.61,2.61,0,0,1,1.45.35,1.27,1.27,0,0,1,.53,1.17v.55a21.26,21.26,0,0,0-2.31.23,7.89,7.89,0,0,0-2,.57,3.62,3.62,0,0,0-1.38,1.07,2.79,2.79,0,0,0-.52,1.76,3,3,0,0,0,1.19,2.52,5.88,5.88,0,0,0,3.58.9,11.33,11.33,0,0,0,2.29-.23,6.49,6.49,0,0,0,1.68-.54ZM78.18,405l-1.44-10.58H73.52l-1.92,6.08a5.55,5.55,0,0,0-.2.78c-.05.28-.09.49-.12.62h0c0-.17-.06-.38-.1-.62a7.7,7.7,0,0,0-.21-.78L69,394.46h-3.2L64.35,405h2.52l.72-6.64c0-.27,0-.56.07-.87s0-.52,0-.64h0c0,.11.07.3.13.58s.14.59.24.93L70.22,405H72.3l2.13-6.64a7.2,7.2,0,0,0,.23-.88c0-.28.09-.48.12-.63h0c0,.13,0,.33,0,.6s0,.57.08.91l.72,6.64Zm-18.09-4a3,3,0,0,1-.48,1.08,2.32,2.32,0,0,1-.79.71,2.29,2.29,0,0,1-1.1.26,4.59,4.59,0,0,1-.73-.06,2,2,0,0,1-.53-.14v-6.4a1.6,1.6,0,0,1,.52-.16,4.2,4.2,0,0,1,.72-.06,2.2,2.2,0,0,1,1.89.9,4.13,4.13,0,0,1,.66,2.5,5.37,5.37,0,0,1-.16,1.37m1.5-5.41a5.16,5.16,0,0,0-3.93-1.44,10.55,10.55,0,0,0-2.24.23,6.44,6.44,0,0,0-1.63.54v14.27h2.67v-4.34a3.52,3.52,0,0,0,.68.17,4.8,4.8,0,0,0,.85.07,5.45,5.45,0,0,0,2.14-.39,4.3,4.3,0,0,0,1.55-1.12,4.48,4.48,0,0,0,.94-1.72,7.2,7.2,0,0,0,.32-2.23,5.7,5.7,0,0,0-1.35-4m-16.85,3.51a3.53,3.53,0,0,1,.69-2.25,2.2,2.2,0,0,1,1.72-.76,1.92,1.92,0,0,1,1.49.6,2.62,2.62,0,0,1,.53,1.8Zm7-.14a6.06,6.06,0,0,0-.31-2,4.31,4.31,0,0,0-.88-1.52,3.87,3.87,0,0,0-1.42-1,5.38,5.38,0,0,0-1.95-.34,5.23,5.23,0,0,0-2.07.4,4.28,4.28,0,0,0-1.54,1.14,5.12,5.12,0,0,0-1,1.75,6.86,6.86,0,0,0-.34,2.23,7,7,0,0,0,.35,2.24,4.7,4.7,0,0,0,1,1.75,4.48,4.48,0,0,0,1.67,1.14,6.05,6.05,0,0,0,2.3.41,11,11,0,0,0,2.2-.22,6.87,6.87,0,0,0,1.71-.55l-.76-2a6.72,6.72,0,0,1-1.36.48,7,7,0,0,1-1.59.18,3.29,3.29,0,0,1-2-.56,2.51,2.51,0,0,1-1-1.75l6.82-.92a3.73,3.73,0,0,0,0-.46Zm-11.49,6V394.46H31.5V405h2.68v-8.5h3.43V405ZM26.93,394.46a27.7,27.7,0,0,1-.74,4.3,38.42,38.42,0,0,1-1.22,3.9h0a32.22,32.22,0,0,1-1.4-3.93,26.69,26.69,0,0,1-.82-4.27H19.88a17.52,17.52,0,0,0,.49,2.74,26.43,26.43,0,0,0,.86,2.7c.33.89.7,1.76,1.11,2.63s.85,1.7,1.31,2.51l-2.1,4.22h2.79l2.1-4.38c.36-.77.73-1.58,1.09-2.42s.69-1.71,1-2.6.56-1.79.78-2.7a17.33,17.33,0,0,0,.46-2.7Zm-9,8.09a2.63,2.63,0,0,1-1.57.47,2.06,2.06,0,0,1-.91-.21,2.1,2.1,0,0,1-.75-.62,2.84,2.84,0,0,1-.51-1,4.79,4.79,0,0,1-.19-1.44,3.8,3.8,0,0,1,.69-2.48,2.12,2.12,0,0,1,1.67-.82,2.65,2.65,0,0,1,1.57.45l.84-1.92a5.25,5.25,0,0,0-2.81-.73,4.68,4.68,0,0,0-1.77.34,4.14,4.14,0,0,0-1.51,1,5,5,0,0,0-1.06,1.71,7.06,7.06,0,0,0-.39,2.46,7,7,0,0,0,.39,2.45,5.12,5.12,0,0,0,1.06,1.73,4,4,0,0,0,1.51,1,4.88,4.88,0,0,0,1.77.34,5.34,5.34,0,0,0,2.81-.73Z" transform="translate(33.05 -325.4)"/></svg>