<svg id="Layer_1" data-name="Layer 1" xmlns="http://www.w3.org/2000/svg" viewBox="0 0 111.77 24.2"><defs><style>.cls-1{fill:#2d5234;}</style></defs><title>viktoria</title><path class="cls-1" d="M43.29,34.11a3.12,3.12,0,0,1-2,.66h-.37l-1-.08a.25.25,0,0,1-.23-.24v-5a.26.26,0,0,1,.2-.24l.72-.06a3.8,3.8,0,0,1,2.42.69,2.82,2.82,0,0,1,1,2.35,2.54,2.54,0,0,1-.78,1.94m-3.59-11a.24.24,0,0,1,.19-.26,5.08,5.08,0,0,1,.83-.08,2.06,2.06,0,0,1,1.43.54,2.21,2.21,0,0,1,.53,1.55,2,2,0,0,1-.88,1.77,2.78,2.78,0,0,1-1.57.38l-.32,0a.24.24,0,0,1-.21-.24Zm4.63,4.45h0c-.07,0-.12-.15-.12-.15a.29.29,0,0,1,.12-.29,4.14,4.14,0,0,0,1.23-1A3.22,3.22,0,0,0,46.19,24a3.13,3.13,0,0,0-1.38-2.69A6.44,6.44,0,0,0,41,20.43H36.61s-.2,0-.23.24V36.73a.22.22,0,0,0,0,.13.21.21,0,0,0,.19.11h2.6c1.36,0,2.3.05,2.83,0a6.42,6.42,0,0,0,2.48-.58,5.57,5.57,0,0,0,2-1.9,4.61,4.61,0,0,0,.8-2.66,4.07,4.07,0,0,0-1.13-2.93,4.92,4.92,0,0,0-1.91-1.34" transform="translate(-36.38 -12.79)"/><path class="cls-1" d="M61.49,20.43H59.16a.36.36,0,0,0-.27.14l-5.67,8.7h0a.29.29,0,0,1-.39.1.37.37,0,0,1-.19-.28V20.66a.23.23,0,0,0-.23-.23H49.55a.24.24,0,0,0-.23.23v16a.27.27,0,0,0,.24.26h1.8a.33.33,0,0,0,.27-.15h0l6.16-9.24a.34.34,0,0,1,.39-.09.36.36,0,0,1,.21.31v8.93a.24.24,0,0,0,.23.24h2.9a.26.26,0,0,0,.2-.24V20.66a.23.23,0,0,0-.23-.23" transform="translate(-36.38 -12.79)"/><path class="cls-1" d="M134.83,20.43H132.5a.37.37,0,0,0-.28.14l-5.67,8.7h0a.29.29,0,0,1-.39.1.4.4,0,0,1-.19-.28V20.66a.22.22,0,0,0-.22-.23h-2.86a.24.24,0,0,0-.23.23v16a.28.28,0,0,0,.24.26h1.8a.36.36,0,0,0,.28-.15h0l6.16-9.24a.32.32,0,0,1,.38-.09.36.36,0,0,1,.21.31v8.93A.24.24,0,0,0,132,37h2.9a.26.26,0,0,0,.2-.24V20.66a.22.22,0,0,0-.22-.23" transform="translate(-36.38 -12.79)"/><path class="cls-1" d="M90,20.43H78.69a.23.23,0,0,0-.23.23v2.82a.25.25,0,0,0,.22.24h3.63a.34.34,0,0,1,.31.34V36.72a.24.24,0,0,0,.23.24h2.86a.23.23,0,0,0,.22-.22V24.07a.34.34,0,0,1,.3-.35H90a.24.24,0,0,0,.23-.24V20.66a.23.23,0,0,0-.23-.23" transform="translate(-36.38 -12.79)"/><path class="cls-1" d="M116.27,27a3.23,3.23,0,0,1-2.46,1.17.35.35,0,0,1-.37-.32V22.93a.32.32,0,0,1,.23-.24h0l.33-.05a2.81,2.81,0,0,1,2.6,1.25,2.56,2.56,0,0,1-.36,3.13M119,21.59a6.63,6.63,0,0,0-4-1.17h-4.69a.3.3,0,0,0-.23.29v16a.24.24,0,0,0,.23.24h2.93c.21,0,.23-.18.23-.23V31.28a.38.38,0,0,1,.32-.38A8.26,8.26,0,0,0,118.68,29a5.12,5.12,0,0,0,1.9-3.92A4.33,4.33,0,0,0,119,21.59" transform="translate(-36.38 -12.79)"/><path class="cls-1" d="M99.4,33.41a5,5,0,1,1,5-5,5,5,0,0,1-5,5m0-13.51a8.47,8.47,0,1,0,8.45,8.47A8.46,8.46,0,0,0,99.4,19.9" transform="translate(-36.38 -12.79)"/><path class="cls-1" d="M98.32,18.2a.42.42,0,0,0,.23.13,15.24,15.24,0,0,0,3-.4,7.45,7.45,0,0,0,2.23-.85,6.89,6.89,0,0,0,1.46-1.17,7.07,7.07,0,0,0,.93-1.19,6.51,6.51,0,0,0,.54-1.17c0-.06.05-.13.07-.2a.5.5,0,0,0,0-.43h0a.44.44,0,0,0-.22-.13,15.91,15.91,0,0,0-3,.4,7.45,7.45,0,0,0-2.23.85,7.61,7.61,0,0,0-1.47,1.18,6.35,6.35,0,0,0-.93,1.19,6.08,6.08,0,0,0-.53,1.16.8.8,0,0,0-.07.2.46.46,0,0,0,0,.43Z" transform="translate(-36.38 -12.79)"/><path class="cls-1" d="M144.74,27.79a.34.34,0,0,1-.27.26,3.25,3.25,0,0,1-3.3-2,2.61,2.61,0,0,1,2.26-3.51,4.56,4.56,0,0,1,1,0,.36.36,0,0,1,.28.28Zm3.18-7.43h-5.06a5.61,5.61,0,0,0-3.73,1.13,4.57,4.57,0,0,0-.46,6.3,7.2,7.2,0,0,0,2,1.48.35.35,0,0,1,.16.48l-1.73,3.46-1.56,3.36,0,0a.25.25,0,0,0,.06.28.31.31,0,0,0,.15.06h.78a3.42,3.42,0,0,0,2.92-1.3c.33-.44,1.5-2.63,2.28-4.23v0l0,0,0-.1a.67.67,0,0,1,.56-.4.36.36,0,0,1,.35.4v5.47A.25.25,0,0,0,145,37h2.94a.25.25,0,0,0,.24-.24V20.6a.24.24,0,0,0-.24-.24" transform="translate(-36.38 -12.79)"/><path class="cls-1" d="M75.87,35.16l0,0-4.58-6.49h0a.67.67,0,0,1-.07-.74h0l.1-.13,5.15-6.93h0a.27.27,0,0,0,0-.29.21.21,0,0,0-.18-.1H73a.37.37,0,0,0-.26.14l-4.54,6a.31.31,0,0,1-.38.12.34.34,0,0,1-.22-.33h0V20.66a.23.23,0,0,0-.22-.24H64.53a.24.24,0,0,0-.23.24V36.72a.24.24,0,0,0,.23.24h2.86a.23.23,0,0,0,.22-.24V30a.27.27,0,0,1,.15-.2.22.22,0,0,1,.26.1l4.12,6a2.3,2.3,0,0,0,1.08.78,4.33,4.33,0,0,0,1.63.24h1.87a.23.23,0,0,0,.2-.13.22.22,0,0,0,0-.26Z" transform="translate(-36.38 -12.79)"/></svg>