<svg id="Layer_1" data-name="Layer 1" xmlns="http://www.w3.org/2000/svg" viewBox="0 0 205.75 111.14"><defs><style>.cls-1{fill:#30533a;}.cls-2{fill:#ea2e26;}.cls-3{fill:#beb800;}</style></defs><title>vikt-k</title><rect class="cls-1" width="205.75" height="111.14"/><path class="cls-2" d="M209.25,284.36a6.74,6.74,0,0,0-3.56-2.06,7,7,0,0,0,2.59-1.69,4.1,4.1,0,0,0,1-2.79,4.22,4.22,0,0,0-2-3.67,9.72,9.72,0,0,0-5.51-1.36l-8.5.08a2.14,2.14,0,0,1,1.33,1.49,7.86,7.86,0,0,1,.24,2.18v1.07l0,13.06v.91a8.53,8.53,0,0,1-.26,2.34,2.31,2.31,0,0,1-1.33,1.59h5.92c2,0,3.32.09,4.09,0a9.64,9.64,0,0,0,3.58-.88,7.86,7.86,0,0,0,3-2.58,6,6,0,0,0,1.16-3.63,5.73,5.73,0,0,0-1.71-4.09m-9.33-8.14a8.15,8.15,0,0,1,1.43-.16,2.3,2.3,0,0,1,1.76.75,2.87,2.87,0,0,1,.75,2.12,2.61,2.61,0,0,1-1.27,2.4,3.12,3.12,0,0,1-1.93.52l-.75-.09Zm4.82,15.32a3.79,3.79,0,0,1-2.56.93,3.31,3.31,0,0,1-.54,0l-1.76-.13,0-7.46,1.32-.1a5.16,5.16,0,0,1,3.18,1,3.78,3.78,0,0,1,1.48,3.21,3.35,3.35,0,0,1-1.14,2.63" transform="translate(-175.86 -238.41)"/><path class="cls-2" d="M227.49,291.18l0-10.57-8.68,12.2a16.27,16.27,0,0,1-2.19,2.38,8.47,8.47,0,0,1-2.87,1.54l.06-19.43a10.52,10.52,0,0,0-.2-2.53,3.34,3.34,0,0,0-1.59-1.84l8.65-.05a3.64,3.64,0,0,0-1.6,1.9,10.73,10.73,0,0,0-.22,2.57l0,10.42,9.21-13.29.48-.71c.2-.3.34-.56.52-.86h5.06a2.75,2.75,0,0,0-1.24,1.51,6.75,6.75,0,0,0-.29,2v.94l0,13.82v1.28a4.9,4.9,0,0,0,.29,1.84,2.82,2.82,0,0,0,1.26,1.29l-8.69.07a4.55,4.55,0,0,0,1.74-1.94,6.8,6.8,0,0,0,.36-2.57" transform="translate(-175.86 -238.41)"/><path class="cls-2" d="M337.4,291.49l0-10.57-8.69,12.2a16.87,16.87,0,0,1-2.18,2.38,8.61,8.61,0,0,1-2.88,1.54l.06-19.44a10,10,0,0,0-.21-2.53,3.21,3.21,0,0,0-1.59-1.83l8.66-.05a3.56,3.56,0,0,0-1.6,1.9,10.32,10.32,0,0,0-.21,2.56l0,10.43,9.21-13.3.48-.7c.2-.3.34-.56.51-.87l5.07,0a2.74,2.74,0,0,0-1.23,1.5,6.5,6.5,0,0,0-.3,2v.93l0,13.82v1.28a5,5,0,0,0,.29,1.84,2.74,2.74,0,0,0,1.26,1.3l-8.69.06a5.52,5.52,0,0,0,1.74-1.93,6.46,6.46,0,0,0,.35-2.57" transform="translate(-175.86 -238.41)"/><path class="cls-2" d="M238.41,277.78V277a8.81,8.81,0,0,0-.2-2.32,2.24,2.24,0,0,0-1.35-1.6L245,273a2.18,2.18,0,0,0-1.27,1.49,9.62,9.62,0,0,0-.3,2.56v.79l0,13.06v.87a9.72,9.72,0,0,0,.2,2.32,2.24,2.24,0,0,0,1.35,1.61l-8.17.07a2.37,2.37,0,0,0,1.32-1.69,9.1,9.1,0,0,0,.25-2.39v-.8Zm11-1.65a3.54,3.54,0,0,0,.71-1.72,1.49,1.49,0,0,0-1-1.34l7.51-.09-7.47,9.53,7,9.22c.53.7,1,1.3,1.53,1.94a6.36,6.36,0,0,0,2.09,2l-4.86,0a6.43,6.43,0,0,1-2.36-.33,3.43,3.43,0,0,1-1.56-1.09l-7.67-10.38s5.72-7.18,6.14-7.75" transform="translate(-175.86 -238.41)"/><path class="cls-2" d="M269.37,291.31a10.88,10.88,0,0,0,.2,2.53,3.36,3.36,0,0,0,1.59,1.89l-8.38.06a2.34,2.34,0,0,0,1.29-1.62,8.53,8.53,0,0,0,.25-2.32V291l0-14.37h-2.29a7.68,7.68,0,0,0-2.29.32,5.53,5.53,0,0,0-2.06,1.06l1.34-5.24a2.46,2.46,0,0,0,.78.19l.64.09,13.8,0a5.75,5.75,0,0,0,.91,0,2.63,2.63,0,0,0,.69-.22l-1.2,5.05a1.48,1.48,0,0,0-1-.91,5.51,5.51,0,0,0-1.89-.3h-2.37Z" transform="translate(-175.86 -238.41)"/><path class="cls-2" d="M312.81,273.14a9.49,9.49,0,0,1,5.71,1.63,5.19,5.19,0,0,1,2.22,4.45,5.75,5.75,0,0,1-2.29,4.68,8.35,8.35,0,0,1-5.37,1.8,8.19,8.19,0,0,1-1.37-.09,5.18,5.18,0,0,1-1.16-.4,4.67,4.67,0,0,0,3.31-1.42,5,5,0,0,0,1.82-3.89,4,4,0,0,0-4.22-3.9,3.89,3.89,0,0,0-.84.17l0,15.29a10.28,10.28,0,0,0,.2,2.53,3.16,3.16,0,0,0,1.59,1.85l-8.42.07a2.36,2.36,0,0,0,1.33-1.67,9.44,9.44,0,0,0,.25-2.39v-.8l0-13.07v-.83a9.58,9.58,0,0,0-.2-2.33,2.33,2.33,0,0,0-1.31-1.63Z" transform="translate(-175.86 -238.41)"/><path class="cls-2" d="M355,273.16l9.24,0a2.17,2.17,0,0,0-1.24,1.43,8.9,8.9,0,0,0-.3,2.48v1l0,13.06v1.07a8.16,8.16,0,0,0,.29,2.37,2,2,0,0,0,1.23,1.42l-8.14.06a2.52,2.52,0,0,0,1.32-1.75,9.49,9.49,0,0,0,.25-2.39v-.79l0-14.82a10.43,10.43,0,0,0-1.81-.19,3.83,3.83,0,0,0-2.66,1.17,3,3,0,0,0-.84,2.31,3.87,3.87,0,0,0,1.94,3.43,8.76,8.76,0,0,0,3.86,1.43c-.44.72-.61,1-.89,1.4-.81,1.29-3.43,7.6-4,8.37a4.88,4.88,0,0,1-4.17,1.72l-4.25.08a6.51,6.51,0,0,0,2.32-1.62,12.06,12.06,0,0,0,2.32-3.31l3.07-6.36a7.75,7.75,0,0,1-3-2.06,5.55,5.55,0,0,1-1.69-3.95,5,5,0,0,1,1.9-4,8.16,8.16,0,0,1,5.3-1.55" transform="translate(-175.86 -238.41)"/><path class="cls-2" d="M288.61,274.81a6.2,6.2,0,0,0-5.36,2.83,10.16,10.16,0,0,0-1.67,5.81,15.85,15.85,0,0,0,.5,3.72,13.52,13.52,0,0,0,1.34,3.49,7.6,7.6,0,0,0,2.36,2.54,5.72,5.72,0,0,0,3.23,1,6.54,6.54,0,0,0,3.08-.77,7.49,7.49,0,0,0,2.42-2.06,6.83,6.83,0,0,0,1.2-2.54,13.26,13.26,0,0,0,.32-3,15.2,15.2,0,0,0-1.51-7c-1.33-2.6-3.32-3.92-5.91-3.93m-9.42,18.56a11.66,11.66,0,0,1-3.75-9,11.29,11.29,0,0,1,4.05-9,9.67,9.67,0,0,1,9.58-2.08,9.65,9.65,0,0,1,9.45,2c2.44,2.19,3.67,5.27,3.66,9.14a11.32,11.32,0,0,1-4,9.11,13.51,13.51,0,0,1-6.25,3c-2.3.44-2.56-.54-3.33-.54s-.89,1-3.38.5a12.62,12.62,0,0,1-6-3" transform="translate(-175.86 -238.41)"/><path class="cls-3" d="M306.23,264.13c.89,3.34-1.22,8.92-8,6.57-2.65-.93-4.19-1.79-6.47-1.1a4.7,4.7,0,0,0-2.49,2.53l-.59-.06c1.7-5.86,4.46-8.26,11.08-6.9,4.86,1,5.56.19,6.46-1" transform="translate(-175.86 -238.41)"/><path class="cls-3" d="M281.39,304.89a1.71,1.71,0,0,0-1.75-2.07l-9,0s-3.43,20.63-3.49,21h1.06a2.56,2.56,0,0,0,2.39-2l.55-3.28,5.84,0a2.56,2.56,0,0,0,2.44-2.09Zm-8,1h4.77l-1.61,9.64-4.76,0Z" transform="translate(-175.86 -238.41)"/><path class="cls-3" d="M326.51,318.72c.08-.47,2.55-15.3,2.62-15.76l-6.84,0-1.29.16a5.55,5.55,0,0,0-3.92,4.2s-1.81,10.92-1.88,11.38c2.14.12,3.19-.46,3.62-2.65l1.4-8.3c.31-1.81,1.88-1.7,2.57-1.7h2.62s-2,12.2-2.11,12.67h3.21" transform="translate(-175.86 -238.41)"/><path class="cls-3" d="M238,318.45c.08-.42.78-4.65.78-4.65.43-2.6.19-3.73-1.47-3.73,1.27,0,2.27-1.1,2.54-2.7l.77-4.66h-3.2l-.65,3.86a2.34,2.34,0,0,1-2.32,2.18c-1.28,0-1.82-.74-1.58-2.19l.64-3.86h-3.16s-2.54,15.28-2.62,15.75h3.16c.08-.45,1.1-6.6,1.1-6.6h3.9s-1,6.15-1.09,6.6H238" transform="translate(-175.86 -238.41)"/><path class="cls-3" d="M267.49,306a2.69,2.69,0,0,0-2.73-3.25l-7.72,0-.5,3.05,6.18,0a1.41,1.41,0,0,1,1.4,1.7,2.08,2.08,0,0,1-2,1.68h-4.08a2.59,2.59,0,0,0-2.45,2.09s-1.13,6.8-1.19,7.19l8.51,0c1.71,0,2.61-.82,2.92-2.7Zm-9,6.24h4.86l-.53,3.17H258Z" transform="translate(-175.86 -238.41)"/><path class="cls-3" d="M314.62,306.17a2.69,2.69,0,0,0-2.73-3.25h-7.72c-.06.39-.44,2.66-.51,3.05l6.18,0a1.41,1.41,0,0,1,1.41,1.69,2.09,2.09,0,0,1-2,1.69H305.2a2.59,2.59,0,0,0-2.45,2.09s-1.13,6.8-1.19,7.19l8.5,0c1.72,0,2.62-.82,2.93-2.7Zm-9,6.22h4.86l-.53,3.18h-4.85Z" transform="translate(-175.86 -238.41)"/><path class="cls-3" d="M298.9,318.63c.07-.47,1.9-11.36,1.9-11.36a3.69,3.69,0,0,0-2.52-4.22h0a4,4,0,0,0-1.23-.17H284.38c-.08.47-2.54,15.28-2.62,15.74H285c.08-.46,2.06-12.4,2.06-12.4l.05-.25h3.75s-2,12.19-2.11,12.65h3.21C292,318.15,294,306,294,306h3.75s-2,12.19-2.1,12.65h3.21" transform="translate(-175.86 -238.41)"/><path class="cls-3" d="M250.23,309.42h-4.87l.58-3.52h4.88Zm-1,6.24-4.88,0,.6-3.53,4.87,0Zm4.1-6.25.74-4.47a2,2,0,0,0-2-2.19l-8.77,0-2.61,15.66,9.36,0a2.46,2.46,0,0,0,2.18-2.41l.65-3.91a1.59,1.59,0,0,0-.84-1.39,1.82,1.82,0,0,0,1.29-1.29" transform="translate(-175.86 -238.41)"/></svg>